<svg xmlns="http://www.w3.org/2000/svg" width="119.287" height="105.254" viewBox="0 0 119.287 105.254">
  <defs>
    <style>
      .cls-1, .cls-3, .cls-5 {
        fill: #fff;
      }

      .cls-1, .cls-2, .cls-3, .cls-4, .cls-6 {
        stroke: #000;
      }

      .cls-3, .cls-4 {
        fill-rule: evenodd;
      }

      .cls-6 {
        fill: #c21832;
        stroke-width: 2px;
      }
    </style>
  </defs>
  <g id="Config" transform="translate(-5700.333 -19871.629)">
    <g id="admin-tools-svgrepo-com" transform="translate(5714.861 19872.129)">
      <g id="Grupo_21043" data-name="Grupo 21043">
        <g id="admin-tools-svgrepo-com-2" data-name="admin-tools-svgrepo-com" transform="translate(20 18.996)">
          <g id="Grupo_21043-2" data-name="Grupo 21043">
            <g id="Trazado_4768" data-name="Trazado 4768" transform="translate(-27.901 80.256) rotate(-90)">
              <path id="Trazado_4962" data-name="Trazado 4962" class="cls-1" d="M7.037,105.489a11.125,11.125,0,0,1-7.96-3.295,10.665,10.665,0,0,1-3.186-7.723A13.211,13.211,0,0,1-.086,85.245l.011-.011.01-.011c3.972-4.432,15.627-14.7,24.138-22.2,3.313-2.919,6.174-5.44,7.681-6.83A136.76,136.76,0,0,1,49.189,42.143c5.516-3.569,8.526-4.318,10.08-4.318a2.272,2.272,0,0,1,2.326,1.254c.437.962.383,2.507-.156,4.469a36.259,36.259,0,0,1-3.3,7.575c-3.512,6.355-9.186,14.081-16.41,22.342-.853.976-2,2.306-3.319,3.845-6.067,7.059-16.221,18.873-22.238,24.269l-.01.01-.01.009A13.038,13.038,0,0,1,7.037,105.489ZM7.7,88a5.57,5.57,0,0,0-3.96,1.652,5.628,5.628,0,0,0,0,7.878l0,0,0,0A5.636,5.636,0,0,0,7.7,99.147a5.506,5.506,0,0,0,3.922-1.614,5.566,5.566,0,0,0,1.652-4,5.445,5.445,0,0,0-1.652-3.887A5.442,5.442,0,0,0,7.7,88Z"/>
              <path id="Trazado_4963" data-name="Trazado 4963" class="cls-2" d="M7.037,104.989a12.538,12.538,0,0,0,8.756-3.744l.039-.038c5.992-5.374,16.133-17.173,22.192-24.222,1.324-1.54,2.467-2.871,3.322-3.848C48.548,64.9,54.2,57.205,57.7,50.881a35.78,35.78,0,0,0,3.26-7.465c.641-2.334.454-3.534.183-4.13-.187-.412-.585-.96-1.87-.96-1.487,0-4.4.735-9.808,4.237A136.281,136.281,0,0,0,32.092,56.558c-1.511,1.393-4.374,3.916-7.689,6.837C15.9,70.887,4.259,81.147.307,85.557L.266,85.6a12.709,12.709,0,0,0-3.875,8.871A10.178,10.178,0,0,0-.57,101.841a10.619,10.619,0,0,0,7.607,3.148M7.7,87.5a5.937,5.937,0,0,1,4.276,1.8,5.941,5.941,0,0,1,1.8,4.238A6.075,6.075,0,0,1,7.7,99.647a6.134,6.134,0,0,1-4.3-1.752l-.018-.018A6.129,6.129,0,0,1,3.385,89.3,6.066,6.066,0,0,1,7.7,87.5m-.661,18.491a11.623,11.623,0,0,1-8.314-3.441C-6.244,97.58-5.405,89.807-.437,84.89c5.6-6.247,26.616-24.24,31.852-29.067,14.03-12.935,23.361-18.5,27.855-18.5,7.329,0,1.8,14.778-17.169,36.469-4.743,5.425-18.236,21.553-25.6,28.158A13.48,13.48,0,0,1,7.037,105.989ZM7.7,88.5a5.082,5.082,0,1,0,3.569,8.681,5.028,5.028,0,0,0,0-7.175A4.962,4.962,0,0,0,7.7,88.5Z"/>
            </g>
          </g>
        </g>
        <g id="Trazado_4768-2" data-name="Trazado 4768" transform="translate(5.002 -2.02)">
          <path id="Trazado_4964" data-name="Trazado 4964" class="cls-1" d="M7.7,105.774A12.221,12.221,0,0,1-4.5,93.541,11.992,11.992,0,0,1-.933,85L55.729,33.853l.261-.236-.134-.326A22.3,22.3,0,0,1,60.715,9,22,22,0,0,1,76.376,2.52a22.64,22.64,0,0,1,6.741,1.025L70.19,16.473l-.182.182.042.254L72.062,28.92l.058.349.348.061,12.139,2.139.257.045.184-.185L97.816,18.513a22.462,22.462,0,0,1,.4,11.223A22.236,22.236,0,0,1,76.5,47.1a22.254,22.254,0,0,1-8.521-1.685l-.326-.134-.236.262L16.324,102.2A12.122,12.122,0,0,1,7.7,105.774ZM7.7,88a5.57,5.57,0,0,0-3.96,1.652,5.628,5.628,0,0,0,0,7.878l0,0,0,0A5.636,5.636,0,0,0,7.7,99.147a5.506,5.506,0,0,0,3.922-1.614,5.566,5.566,0,0,0,1.652-4,5.445,5.445,0,0,0-1.652-3.888A5.442,5.442,0,0,0,7.7,88Z"/>
          <path id="Trazado_4965" data-name="Trazado 4965" class="cls-2" d="M76.376,3.02A21.727,21.727,0,0,0,55.059,20.667,21.809,21.809,0,0,0,56.318,33.1l.268.651L-.59,85.361A11.5,11.5,0,0,0-4,93.543,11.72,11.72,0,0,0,7.7,105.274a11.629,11.629,0,0,0,8.257-3.415L67.517,44.683l.652.269A21.774,21.774,0,0,0,91.918,40.2a21.509,21.509,0,0,0,5.808-10.573,21.948,21.948,0,0,0-.164-10.152L85.034,32.052,71.685,29.7,69.472,16.484,82.166,3.789a22.124,22.124,0,0,0-5.79-.769M11.974,89.3a5.942,5.942,0,0,1,1.8,4.238A6.075,6.075,0,0,1,7.7,99.647a6.133,6.133,0,0,1-4.3-1.752l-.018-.018A6.129,6.129,0,0,1,3.385,89.3,6.066,6.066,0,0,1,7.7,87.5a5.938,5.938,0,0,1,4.276,1.8M76.376,2.02a23.22,23.22,0,0,1,7.669,1.305l-13.5,13.5,2.011,12.011,12.139,2.139,13.351-13.4a22.7,22.7,0,0,1-5.419,23.333h0a22.794,22.794,0,0,1-24.838,4.968l-51.1,56.672a12.688,12.688,0,0,1-17.963,0,12.629,12.629,0,0,1,0-17.913L55.394,33.482A22.8,22.8,0,0,1,60.361,8.644,22.529,22.529,0,0,1,76.376,2.02ZM7.7,98.647A5.066,5.066,0,1,0,4.092,90,5.056,5.056,0,0,0,7.7,98.647Z"/>
        </g>
      </g>
    </g>
    <g id="Icons1" transform="translate(5701 19872.123)">
      <g id="Exclusión_1" data-name="Exclusión 1" transform="translate(5589 19923.123)">
        <path id="Trazado_4966" data-name="Trazado 4966" class="cls-3" d="M-5521.61-19851.7a16.548,16.548,0,0,1-4.2-.6l-22.26-26,11.66-11.7,25.17,23.2a10.113,10.113,0,0,1,.96,3.7,9.968,9.968,0,0,1-.4,3.7,9.96,9.96,0,0,1-2.44,4.1,10.863,10.863,0,0,1-4.24,2.9A11.782,11.782,0,0,1-5521.61-19851.7Zm-52.96-19.6-13.76-13.8,5.12-6.5a9.277,9.277,0,0,0,5.08,1.9,5.419,5.419,0,0,0,3.9-1.7c1.62-1.6,2.42-4.1,2.32-7.1a18.761,18.761,0,0,0-.57-3.9,97.007,97.007,0,0,1,7.39-7.6,77.461,77.461,0,0,1,7.49-6.2,35.6,35.6,0,0,1,8.17-4.5c3.61-1.3,8.68-1.9,15.07-1.9a139.449,139.449,0,0,1,16.05,1.1l-.23,3.2a38.786,38.786,0,0,0-4.98.6,55.657,55.657,0,0,0-12.26,3.5c-8.65,3.5-10.51,7.5-11.24,11.3-.27,1.4.66,3.2,2.76,5.4a33.463,33.463,0,0,0,2.67,2.5l-11.55,11.5a17.912,17.912,0,0,0-2.12-1.8,10.7,10.7,0,0,0-6.23-2.3,9.12,9.12,0,0,0-6.27,2.7c-1.53,1.4-2.01,3.3-1.4,5.7a10.757,10.757,0,0,0,1.12,2.7Z"/>
        <path id="Trazado_4967" data-name="Trazado 4967" class="cls-4" d="M-5534.36-19922.1c-6.33,0-11.35.6-14.9,1.9-4.36,1.5-9.72,5.2-15.48,10.5-3.56,3.3-6.27,6.4-7.19,7.4.45,1.8,1.56,7.8-1.95,11.3a5.838,5.838,0,0,1-4.25,1.8,9.317,9.317,0,0,1-4.98-1.7l-4.56,5.8,13.13,13.1,5.85-4.6a13.169,13.169,0,0,1-.95-2.5,5.878,5.878,0,0,1,1.54-6.2,9.521,9.521,0,0,1,6.61-2.8c3.87,0,6.98,2.6,8.35,3.9l10.81-10.8c-.61-.5-1.46-1.3-2.29-2.1-2.25-2.4-3.19-4.3-2.89-5.9.72-3.7,2.65-8,11.54-11.7a56.468,56.468,0,0,1,12.37-3.5c2.06-.3,3.66-.5,4.59-.6l.17-2.3a130.877,130.877,0,0,0-15.52-1m-2.04,32.8-10.98,11,21.85,25.6a18.877,18.877,0,0,0,3.92.5,10.907,10.907,0,0,0,4.08-.7,8.933,8.933,0,0,0,4.04-2.7,9.723,9.723,0,0,0,2.72-7.5,9.8,9.8,0,0,0-.88-3.4l-24.75-22.8m2.04-33.8a125.462,125.462,0,0,1,16.59,1.2l-.31,4.1a57.1,57.1,0,0,0-17.51,4c-9.06,3.8-10.36,8-10.93,11s5.68,7.7,5.68,7.7l-12.32,12.3s-7-8.4-14.27-1.8c-3.38,3.1.04,8.2.04,8.2l-7.22,5.7L-5589-19885l5.7-7.3a9.133,9.133,0,0,0,5.17,2.1,4.965,4.965,0,0,0,3.55-1.5c3.72-3.7,1.55-10.8,1.55-10.8s12.44-14.8,23.44-18.7C-5545.38-19922.7-5539.73-19923.1-5534.36-19923.1Zm-2.07,32.4,25.6,23.6a10.825,10.825,0,0,1-1.92,12.2c-5.36,5.8-13.35,3-13.35,3l-22.65-26.4Z"/>
      </g>
    </g>
    <g id="admin-generic-svgrepo-com" transform="translate(5736.99 19900.65)">
      <circle id="Elipse_212" data-name="Elipse 212" class="cls-5" cx="11.5" cy="11.5" r="11.5" transform="translate(16.01 15.349)"/>
      <g id="Grupo_21044" data-name="Grupo 21044">
        <path id="Trazado_4769" data-name="Trazado 4769" class="cls-6" d="M55.031,33.784H48.1a20.241,20.241,0,0,1-2.574,6.134l4.9,4.9-6.674,6.675-4.9-4.9A20.425,20.425,0,0,1,32.783,49.1v6.929H23.248V49.1a20.425,20.425,0,0,1-6.071-2.511l-4.9,4.9L5.545,44.749l4.9-4.9a20.426,20.426,0,0,1-2.511-6.071H1v-9.44H7.9a20.7,20.7,0,0,1,2.543-6.166l-4.9-4.894,6.674-6.675,4.9,4.892a20.582,20.582,0,0,1,6.134-2.574V2h9.535V8.929a20.425,20.425,0,0,1,6.071,2.511l4.9-4.9,6.738,6.738-4.9,4.9a20.7,20.7,0,0,1,2.543,6.166h6.9ZM28.016,38.551a9.522,9.522,0,1,0-6.746-2.789,9.535,9.535,0,0,0,6.746,2.789Z" transform="translate(-1 -2)"/>
      </g>
    </g>
  </g>
</svg>
