<svg width="70" height="35" viewBox="0 0 70 35" xmlns="http://www.w3.org/2000/svg">
    <g fill-rule="nonzero" fill="none">
        <path d="M3.2 16.813H2.138v2.346h.997c1.05 0 1.568-.464 1.568-1.237 0-.658-.544-1.109-1.503-1.109zm-.298-3.517h-.764v2.242h.933c.556-.026 1.113-.477 1.113-1.147 0-.644-.414-1.095-1.282-1.095zm.376 7.177H.571v-8.491h2.72c1.67 0 2.46 1.082 2.46 2.112 0 .735-.362 1.418-1.061 1.766v.013a2.08 2.08 0 0 1 1.619 2.049c0 1.21-.881 2.55-3.03 2.55M10.839 15.834a1.49 1.49 0 0 0-.725-.22c-.363 0-.764.168-1.18.542v4.316H7.382v-6.094h1.308l.168.644c.635-.554 1.114-.786 1.697-.786.298 0 .57.142.803.31l-.518 1.288M13.907 20.472h-1.554v-6.094h1.554v6.094zm-.777-7.254a.943.943 0 0 1-.959-.94c0-.503.428-.928.959-.928.544 0 .971.412.971.928 0 .515-.427.94-.971.94M17.611 20.602c-1.088 0-1.515-.606-1.515-1.43v-3.634h-1.088v-1.16h1.088v-1.404l1.554-.464v1.868h1.904l-.453 1.16h-1.45v3.066c0 .477.18.696.582.696.389 0 .79-.18 1.023-.335l.415 1.07c-.635.45-1.464.567-2.06.567M22.261 20.472h-1.554v-6.094h1.554v6.094zm-.777-7.254a.943.943 0 0 1-.958-.94c0-.503.427-.928.958-.928.544 0 .971.412.971.928 0 .515-.427.94-.971.94M25.48 20.602c-1.01 0-1.735-.245-2.266-.567l.505-1.07c.453.31 1.036.477 1.645.477.635 0 1.049-.232 1.049-.644 0-1.096-2.824-.683-2.824-2.758 0-1.056.842-1.804 2.319-1.804.764 0 1.32.116 1.8.31v1.288c-.531-.206-1.088-.4-1.735-.4-.544 0-.868.168-.868.529 0 .966 2.875.644 2.875 2.745 0 1.365-1.204 1.894-2.5 1.894M32.988 20.472v-3.556c0-.682-.104-1.379-.932-1.379-.531 0-1.075.348-1.49.697v4.238h-1.554V11.35h1.554v3.628c.57-.464 1.244-.742 2.034-.742.945 0 1.955.45 1.955 2.242v3.994h-1.567M43.813 13.283h-2.772v2.254h2.733l.013 1.276h-2.746v3.66h-1.567V11.98h4.766l-.427 1.302M47.53 15.46c-.985 0-1.465.825-1.465 1.96 0 1.184.557 1.983 1.503 1.983.971 0 1.463-.837 1.463-1.984 0-1.173-.544-1.959-1.502-1.959zm2.227 4.265c-.544.554-1.296.877-2.215.877-.855 0-1.58-.271-2.111-.76-.61-.568-.946-1.405-.946-2.385 0-.953.324-1.778.894-2.358.544-.54 1.282-.863 2.176-.863.945 0 1.71.323 2.254.876.53.567.816 1.366.816 2.294 0 .928-.298 1.753-.868 2.32M54.575 15.46c-.985 0-1.464.825-1.464 1.96 0 1.184.557 1.983 1.503 1.983.97 0 1.463-.837 1.463-1.984 0-1.173-.544-1.959-1.502-1.959zm2.227 4.265c-.544.554-1.295.877-2.214.877-.855 0-1.58-.271-2.112-.76-.609-.568-.945-1.405-.945-2.385 0-.953.323-1.778.893-2.358.545-.54 1.283-.863 2.177-.863.945 0 1.71.323 2.253.876.531.567.816 1.366.816 2.294 0 .928-.298 1.753-.868 2.32M62.747 15.55a2.62 2.62 0 0 0-.725-.09c-1.101 0-1.891.735-1.891 1.933 0 1.108.725 2.01 1.917 2.01.246 0 .518-.039.7-.09V15.55zm-.842 5.051c-1.826 0-3.328-1.069-3.328-3.13 0-1.895 1.412-3.235 3.393-3.235.311 0 .557.013.777.052V11.35h1.555v8.762c-.583.296-1.348.49-2.397.49M67.5 20.602c-1.01 0-1.735-.245-2.266-.567l.505-1.07c.454.31 1.036.438 1.646.438.633 0 1.048-.193 1.048-.605 0-1.096-2.823-.683-2.823-2.758 0-1.056.842-1.804 2.318-1.804.764 0 1.321.116 1.8.31v1.288c-.53-.206-1.087-.374-1.735-.374-.545 0-.868.142-.868.503 0 .966 2.875.644 2.875 2.745 0 1.365-1.204 1.894-2.5 1.894M4.197 3.776a8.954 8.954 0 0 1-.324-1.057H3.86c-.052.296-.169.632-.311 1.03L2.81 5.722h2.072l-.686-1.945zm2.02 5.347-.842-2.126H2.331l-.79 2.126H0L3.316.593h1.14l3.432 8.53H6.217M10.695 9.252c-1.01 0-1.736-.245-2.267-.567l.505-1.07c.453.31 1.036.477 1.645.477.635 0 1.049-.232 1.049-.644 0-1.095-2.824-.683-2.824-2.757 0-1.057.842-1.804 2.319-1.804.764 0 1.321.116 1.8.309v1.288c-.53-.206-1.087-.438-1.735-.438-.544 0-.868.206-.868.567 0 .967 2.875.644 2.875 2.745 0 1.366-1.204 1.894-2.5 1.894M16.108 9.252c-1.01 0-1.735-.245-2.266-.567l.505-1.07c.453.31 1.036.477 1.645.477.635 0 1.049-.232 1.049-.644 0-1.095-2.824-.683-2.824-2.757 0-1.057.842-1.804 2.319-1.804.764 0 1.32.116 1.8.309v1.288c-.531-.206-1.088-.438-1.735-.438-.544 0-.868.206-.868.567 0 .967 2.875.644 2.875 2.745 0 1.366-1.204 1.894-2.5 1.894M22.507 4.046c-.985 0-1.464.89-1.464 2.023 0 1.186.557 1.946 1.503 1.946.97 0 1.463-.799 1.463-1.946 0-1.172-.544-2.023-1.502-2.023zm2.227 4.33c-.544.554-1.295.876-2.214.876-.855 0-1.58-.27-2.112-.76-.609-.567-.945-1.405-.945-2.384 0-.953.324-1.778.894-2.358.544-.541 1.282-.863 2.176-.863.945 0 1.71.322 2.253.876.531.567.816 1.366.816 2.293 0 .928-.298 1.753-.868 2.32M29.527 9.252c-1.995 0-3.018-1.43-3.018-3.144 0-1.856 1.347-3.221 3.173-3.221.83 0 1.373.206 1.723.425v1.172c-.428-.322-.907-.438-1.541-.438-1.05 0-1.8.85-1.8 1.984 0 1.044.569 1.985 1.787 1.985.583 0 1.023-.155 1.45-.4l.389.98a4.089 4.089 0 0 1-2.163.657M34.293 9.123h-1.554V3.028h1.554v6.095zm-.777-7.255a.943.943 0 0 1-.959-.94c0-.503.428-.928.959-.928.544 0 .971.413.971.928 0 .515-.427.94-.971.94M39.007 6.327l-.88.026c-.842.025-1.218.309-1.218.824 0 .503.35.85.997.85.544 0 .894-.206 1.101-.386V6.327zm.388 2.796-.259-.541c-.4.36-.958.67-1.774.67-1.127 0-2.007-.76-2.007-1.959 0-1.263.997-1.945 2.564-1.997l1.088-.039v-.154c0-.735-.518-1.057-1.165-1.057-.674 0-1.192.206-1.581.438l-.505-.927c.816-.542 1.58-.67 2.396-.67 1.515 0 2.435.618 2.435 2.216v2.41c0 .875.026 1.326.117 1.61h-1.309M44.11 9.252c-1.088 0-1.515-.606-1.515-1.43V4.187h-1.088v-1.16h1.088V1.624l1.554-.464v1.868h1.904l-.453 1.16h-1.451v3.067c0 .477.181.696.583.696.388 0 .79-.18 1.023-.336l.414.98a3.79 3.79 0 0 1-2.059.657M49.498 4.046c-.751 0-1.205.67-1.205 1.34h2.384c-.026-.657-.389-1.34-1.179-1.34zm-1.165 2.436c.026.901.777 1.533 1.722 1.533a3.18 3.18 0 0 0 1.593-.4l.376.967c-.687.477-1.503.67-2.228.67-2.137 0-3.044-1.546-3.044-3.183 0-1.74 1.037-3.182 2.785-3.182 1.658 0 2.746 1.25 2.746 3.143v.452h-3.95M57.347 4.137a2.62 2.62 0 0 0-.725-.09c-1.101 0-1.891.798-1.891 1.997 0 1.108.725 1.971 1.917 1.971.246 0 .518-.039.7-.09V4.137zm-.842 5.115c-1.826 0-3.328-1.07-3.328-3.131 0-1.894 1.411-3.234 3.393-3.234.311 0 .557.013.777.051V0h1.554v8.762c-.583.297-1.347.49-2.396.49" fill="#D31145"/>
        <path d="M2.787 26.957c-.3 0-.508.039-.716.09v3.64c.26.09.482.155.808.155 1.093 0 1.718-.79 1.718-1.981 0-1.295-.794-1.904-1.81-1.904zm.17 5.116c-.313 0-.612-.052-.886-.143V35H.509v-8.911a7.036 7.036 0 0 1 2.395-.414c2.188 0 3.32 1.204 3.32 3.108 0 1.93-1.393 3.29-3.268 3.29M8.655 32.073c-1.029 0-1.42-.583-1.42-1.347v-7.953h1.563v7.266c0 .454.091.635.417.635.104 0 .234-.013.455-.065l.196 1.153c-.456.246-.86.31-1.211.31M13.199 32.073c-2.005 0-3.034-1.438-3.034-3.16 0-1.866 1.354-3.238 3.19-3.238.833 0 1.406.207 1.758.427l-.027 1.27c-.43-.325-.911-.506-1.549-.506-1.055 0-1.81.829-1.81 1.969 0 1.049.573 1.981 1.797 1.981.586 0 1.028-.18 1.458-.427l.391 1.023a4.115 4.115 0 0 1-2.174.66" fill="#808285"/>
    </g>
</svg>
