<svg id="animal-shelter" width="586.66669" height="702.46613" fill="#000000" version="1.1" viewBox="0 0 11 13.17124" xmlns="http://www.w3.org/2000/svg">
 <path d="m5.528 0.06623943 1.472 1.10499997h1l1.473-1.10399997c0.216502-0.16226622 0.527-0.0075613 0.527 0.263v3.34099997c0 0.722-0.522 1.184-1 1.573v3.927l0.8 2.3999996 0.706 0.353c0.302922 0.151551 0.494181 0.461283 0.494 0.8 0 0.247-0.2 0.447-0.447 0.447h-8.303c-1.233 0-2.25-1-2.25-2.287 0-2.1705408 0.4530836-3.7829771 0.745-4.8679996 0.1460836-0.5429775 0.2902907-0.9503921 0.393-1.231 0.057603-0.1573744 0.115276-0.3029251 0.192-0.449 0.4488405-0.8545475 1.7443666-0.2093883 1.342 0.668-0.048775 0.1063571-0.094164 0.2182046-0.133 0.317-0.091248 0.2321288-0.213996 0.5930011-0.346 1.084-0.245996 0.9150011-0.519 2.287-0.635 4.1329996 0.368-2.0599996 2.422-4.1279996 4.077-5.6089996-0.345-0.326-0.634-0.72-0.634-1.258v-3.34199997c0-0.2705613 0.3106215-0.42543084 0.527-0.263z"/>
</svg>
