<svg width="16" height="16" viewBox="0 0 16 16" xmlns="http://www.w3.org/2000/svg">
    <path d="M1.806 3.613a1.74 1.74 0 0 1-1.277-.53A1.74 1.74 0 0 1 0 1.807C0 1.308.176.882.529.53A1.74 1.74 0 0 1 1.806 0c.5 0 .925.176 1.278.529.353.353.529.779.529 1.277 0 .5-.176.925-.53 1.278a1.74 1.74 0 0 1-1.277.529zm0 6.193A1.74 1.74 0 0 1 .53 9.277 1.74 1.74 0 0 1 0 8c0-.499.176-.925.529-1.277a1.74 1.74 0 0 1 1.277-.53c.5 0 .925.177 1.278.53.353.352.529.778.529 1.277 0 .499-.176.925-.53 1.277a1.74 1.74 0 0 1-1.277.53zm0 6.194a1.74 1.74 0 0 1-1.277-.529A1.74 1.74 0 0 1 0 14.194c0-.5.176-.925.529-1.278a1.74 1.74 0 0 1 1.277-.529c.5 0 .925.176 1.278.53.353.352.529.778.529 1.277 0 .498-.176.924-.53 1.277A1.74 1.74 0 0 1 1.807 16zM14.194 3.613a1.74 1.74 0 0 1-1.278-.53 1.74 1.74 0 0 1-.529-1.277c0-.498.176-.924.53-1.277A1.74 1.74 0 0 1 14.193 0c.498 0 .924.176 1.277.529.353.353.529.779.529 1.277 0 .5-.176.925-.529 1.278a1.74 1.74 0 0 1-1.277.529zM8 16a1.74 1.74 0 0 1-1.277-.529 1.74 1.74 0 0 1-.53-1.277c0-.5.177-.925.53-1.278A1.74 1.74 0 0 1 8 12.387c.499 0 .925.176 1.277.53.353.352.53.778.53 1.277 0 .498-.177.924-.53 1.277A1.74 1.74 0 0 1 8 16zm6.194 0a1.74 1.74 0 0 1-1.278-.529 1.74 1.74 0 0 1-.529-1.277c0-.5.176-.925.53-1.278a1.74 1.74 0 0 1 1.277-.529c.498 0 .924.176 1.277.53.353.352.529.778.529 1.277 0 .498-.176.924-.529 1.277a1.74 1.74 0 0 1-1.277.529zm0-6.194a1.74 1.74 0 0 1-1.278-.529A1.74 1.74 0 0 1 12.387 8c0-.499.176-.925.53-1.277a1.74 1.74 0 0 1 1.277-.53c.498 0 .924.177 1.277.53C15.824 7.075 16 7.5 16 8c0 .499-.176.925-.529 1.277a1.74 1.74 0 0 1-1.277.53zM8 9.806a1.74 1.74 0 0 1-1.277-.529A1.74 1.74 0 0 1 6.193 8c0-.499.177-.925.53-1.277A1.74 1.74 0 0 1 8 6.193c.499 0 .925.177 1.277.53.353.352.53.778.53 1.277 0 .499-.177.925-.53 1.277A1.74 1.74 0 0 1 8 9.807zm0-6.193a1.74 1.74 0 0 1-1.277-.53 1.74 1.74 0 0 1-.53-1.277c0-.498.177-.924.53-1.277A1.74 1.74 0 0 1 8 0c.499 0 .925.176 1.277.529.353.353.53.779.53 1.277 0 .5-.177.925-.53 1.278A1.74 1.74 0 0 1 8 3.613z" fill="#73767C" fill-rule="nonzero"/>
</svg>
