<?xml version="1.0" encoding="UTF-8" standalone="no"?>
<!-- Generator: Adobe Illustrator 19.0.0, SVG Export Plug-In . SVG Version: 6.00 Build 0)  -->

<svg
   version="1.1"
   id="Layer_1"
   x="0px"
   y="0px"
   viewBox="0 0 330 330"
   style="enable-background:new 0 0 330 330;"
   xml:space="preserve"
   fill="#c21832"
   sodipodi:docname="down-arrow-simple-red.svg"
   inkscape:version="1.2 (dc2aedaf03, 2022-05-15)"
   xmlns:inkscape="http://www.inkscape.org/namespaces/inkscape"
   xmlns:sodipodi="http://sodipodi.sourceforge.net/DTD/sodipodi-0.dtd"
   xmlns="http://www.w3.org/2000/svg"
   xmlns:svg="http://www.w3.org/2000/svg"><defs
   id="defs36" /><sodipodi:namedview
   id="namedview34"
   pagecolor="#ffffff"
   bordercolor="#666666"
   borderopacity="1.0"
   inkscape:showpageshadow="2"
   inkscape:pageopacity="0.0"
   inkscape:pagecheckerboard="0"
   inkscape:deskcolor="#d1d1d1"
   showgrid="false"
   inkscape:zoom="2.6484848"
   inkscape:cx="165"
   inkscape:cy="104.5881"
   inkscape:window-width="1856"
   inkscape:window-height="1044"
   inkscape:window-x="64"
   inkscape:window-y="30"
   inkscape:window-maximized="1"
   inkscape:current-layer="Layer_1" />
<path
   id="XMLID_222_"
   d="m 175.611,250.60563 149.996,-150 c 5.858,-5.857005 5.858,-15.355005 -0.001,-21.213005 -5.858,-5.857 -15.355,-5.857 -21.213,0.001 L 165.003,218.78663 25.606,79.392625 c -5.858,-5.857 -15.355,-5.857 -21.213,0.001 -2.929,2.928 -4.393,6.767 -4.393,10.606 0,3.839 1.464,7.678 4.394,10.607005 l 150.004,149.999 c 2.813,2.814 6.628,4.394 10.606,4.394 3.978,0 7.794,-1.58 10.607,-4.394 z" />
<g
   id="g3"
   transform="rotate(90)">
</g>
<g
   id="g5"
   transform="rotate(90)">
</g>
<g
   id="g7"
   transform="rotate(90)">
</g>
<g
   id="g9"
   transform="rotate(90)">
</g>
<g
   id="g11"
   transform="rotate(90)">
</g>
<g
   id="g13"
   transform="rotate(90)">
</g>
<g
   id="g15"
   transform="rotate(90)">
</g>
<g
   id="g17"
   transform="rotate(90)">
</g>
<g
   id="g19"
   transform="rotate(90)">
</g>
<g
   id="g21"
   transform="rotate(90)">
</g>
<g
   id="g23"
   transform="rotate(90)">
</g>
<g
   id="g25"
   transform="rotate(90)">
</g>
<g
   id="g27"
   transform="rotate(90)">
</g>
<g
   id="g29"
   transform="rotate(90)">
</g>
<g
   id="g31"
   transform="rotate(90)">
</g>
</svg>
