<svg width="48" height="46" viewBox="0 0 48 46" xmlns="http://www.w3.org/2000/svg">
    <g fill-rule="nonzero" stroke="#000" stroke-width=".738" fill="none">
        <path d="m.75 28.358 9.286-9.338a.031.031 0 0 1 .035-.007c.012.005.02.017.02.03v9.009c0 .013.007.025.019.03a.032.032 0 0 0 .035-.007l9.24-9.055a.031.031 0 0 1 .035-.007c.012.005.02.017.02.03v9.242c0 .013.008.025.02.03a.032.032 0 0 0 .035-.007l9.117-9.288a.031.031 0 0 1 .035-.007c.012.005.02.017.02.03v9.32H47.25V45.5H.75V28.358z" fill="#C21832"/>
        <path fill="#FFF" d="M41.805 4.48h-6.548L35.501.5h6.017z"/>
        <path fill="#C21832" d="M42.091 8.46h-7.077l.243-3.98h6.548z"/>
        <path fill="#FFF" d="M42.378 12.44H34.77l.243-3.98h7.077z"/>
        <path fill="#C21832" d="M42.664 16.418H34.52l.25-3.978h7.607z"/>
        <path fill="#FFF" d="M42.95 20.4h-8.665l.236-3.982h8.143z"/>
        <path fill="#C21832" d="M43.246 24.378h-9.207l.246-3.979h8.665z"/>
        <path fill="#FFF" d="M43.523 28.356h-9.727l.243-3.978h9.207z"/>
        <path fill="#54BEC7" d="M4.391 33.37h10.97v4.033H4.391zM18.515 33.37h10.97v4.033h-10.97zM32.639 33.37h10.97v4.033h-10.97z"/>
    </g>
</svg>
