<svg width="34" height="78" viewBox="0 0 34 78" xmlns="http://www.w3.org/2000/svg">
    <g fill="none" fill-rule="evenodd">
        <path fill="#C21832" fill-rule="nonzero" d="M1.357 15.987H8v32.112H1.357z"/>
        <path fill="#FFF" fill-rule="nonzero" d="M7.64 1.252h17.81v46.846H7.64z"/>
        <path fill="#C21832" fill-rule="nonzero" d="M25.714 15.987h6.643v32.112h-6.643zM8 48.098h8.857V77H8zM16.857 48.098h8.857V77h-8.857z"/>
        <path stroke="#000" stroke-width="1.749" d="M1.357 15.987h30.997v32.112H1.357z"/>
        <path stroke="#000" stroke-width="1.749" d="M8 1h17.714v75.997H8zM16.857 47.858V77M8 62.013h17.25M1.357 32.043H8M25.714 32.043h6.64"/>
        <path d="M22.146 3.147s-1.933 3.076 0 3.076c1.932 0 0-3.076 0-3.076z" fill="#54BEC7" fill-rule="nonzero"/>
        <path d="m11.811 4.883.019-.009a.423.423 0 0 1 .558.19l3.183 6.231a.42.42 0 0 1-.193.57l-.019.01a.423.423 0 0 1-.558-.19l-3.183-6.232a.42.42 0 0 1 .193-.57z" fill="#C21832" fill-rule="nonzero"/>
        <path d="m11.278 3.84.064-.03a1.478 1.478 0 0 1 1.953.661l3.48 6.814a1.47 1.47 0 0 1-.676 1.995l-.063.03a1.478 1.478 0 0 1-1.953-.661l-3.48-6.814a1.47 1.47 0 0 1 .675-1.995z" stroke="#000" stroke-width=".875"/>
        <path stroke="#000" stroke-width=".583" d="m14.322 8.309.653-.312M13.846 7.377l.653-.31M13.37 6.444l.652-.31M12.893 5.514l.653-.313M15.275 10.175l.653-.313M14.8 9.242l.652-.313"/>
        <path d="M12.474 12.51s.341-1.712 4.614-1.712 4.27 1.712 4.27 1.712v1.449h-8.884V12.51z" fill="#FFF" fill-rule="nonzero"/>
        <path d="M11.533 12.675s1.797-1.877 5.324-1.877 5.325 1.877 5.325 1.877" stroke="#000" stroke-width="1.749"/>
    </g>
</svg>
