<svg width="32" height="77" viewBox="0 0 32 77" fill="none" xmlns="http://www.w3.org/2000/svg">
<path d="M24.6073 0.999969H7.43842V15.7791H24.6073V0.999969Z" fill="white" stroke="black" stroke-miterlimit="10"/>
<path d="M24.6073 15.7793H7.43842V47.4459H24.6073V15.7793Z" fill="white" stroke="black" stroke-miterlimit="10"/>
<path d="M16.0229 47.4459H7.43842V75.947H16.0229V47.4459Z" fill="#C21832" stroke="black" stroke-miterlimit="10"/>
<path d="M24.6072 47.4459H16.0228V75.947H24.6072V47.4459Z" fill="#C21832" stroke="black" stroke-miterlimit="10"/>
<path d="M7.43842 61.1677H16.0229" stroke="black" stroke-miterlimit="10"/>
<path d="M16.0228 61.1677H24.6043" stroke="black" stroke-miterlimit="10"/>
<path d="M31.0427 15.7793H24.6044V47.4459H31.0427V15.7793Z" fill="#C21832" stroke="black" stroke-miterlimit="10"/>
<path d="M24.6045 31.6123H31.0428" stroke="black" stroke-miterlimit="10"/>
<path d="M7.43855 15.7793H1.00021V47.4459H7.43855V15.7793Z" fill="#C21832" stroke="black" stroke-miterlimit="10"/>
<path d="M1.00018 31.6123H7.43852" stroke="black" stroke-miterlimit="10"/>
<path d="M10.656 7.97089H12.2649L14.6811 10.345L19.7777 5.33105H21.3866L14.6811 11.9278L10.656 7.97089Z" fill="#C21832" stroke="#C21832" stroke-miterlimit="10"/>
<g clip-path="url(#clip0_0_1)">
<path d="M18.6794 19.8662C19.0797 20.1006 19.4397 20.3772 19.75 20.6875C21.8176 22.7551 21.8176 26.1198 19.75 28.1875C19.3286 28.6089 18.8509 28.9365 18.3437 29.184L18.3437 41.3125C18.3437 42.6071 17.2947 43.6562 16 43.6562C15.3527 43.6567 14.7667 43.3942 14.3425 42.97C13.9183 42.5457 13.6563 41.9593 13.6563 41.3125L13.6563 29.184C13.1491 28.9365 12.6714 28.6089 12.25 28.1875C10.1824 26.1198 10.1824 22.7551 12.25 20.6875C12.5603 20.3772 12.9203 20.1006 13.3206 19.8662L18.6794 19.8662ZM18.6794 19.8662C18.4745 19.7458 18.2209 19.7444 18.0142 19.863L18.6794 19.8662ZM18.2341 28.9594L18.0937 29.0279V29.184L18.0937 41.3125C18.0937 42.4691 17.1566 43.4062 16 43.4062H15.9998C15.4216 43.4066 14.8986 43.1725 14.5193 42.7932C14.1401 42.414 13.9063 41.8905 13.9063 41.3125L13.9063 29.184V29.0279L13.7659 28.9594C13.2814 28.7229 12.827 28.4109 12.4268 28.0107C10.4568 26.0407 10.4568 22.8343 12.4268 20.8643C12.7213 20.5698 13.0642 20.3061 13.4469 20.082L13.4474 20.0817C13.5746 20.0069 13.7327 20.0057 13.8624 20.0797L13.8629 20.0799C13.8942 20.0977 13.9229 20.1198 13.9487 20.1457C14.0252 20.2222 14.0695 20.3266 14.0695 20.4376C14.0695 20.4376 14.0695 20.4376 14.0695 20.4377L14.0691 22.9178L14.0691 22.9181C14.0696 23.3381 14.2337 23.7344 14.5309 24.0316C14.8281 24.3288 15.2244 24.4929 15.6444 24.4934L15.6449 24.4934L16.3548 24.493C16.7755 24.493 17.1719 24.3288 17.4691 24.0316C17.7663 23.7344 17.9304 23.3381 17.9309 22.9181V22.9178L17.9309 20.4381C17.9309 20.2896 18.0104 20.1531 18.1383 20.08L18.1386 20.0798C18.2676 20.0058 18.4253 20.0068 18.5526 20.0817L18.5531 20.082C18.9358 20.3061 19.2787 20.5698 19.5732 20.8643C21.5432 22.8343 21.5432 26.0407 19.5732 28.0107C19.173 28.4109 18.7186 28.7229 18.2341 28.9594ZM15.3545 40.6669C14.9981 41.0233 14.9981 41.6016 15.3545 41.958C15.7109 42.3144 16.2891 42.3144 16.6455 41.958C17.0019 41.6016 17.0019 41.0233 16.6455 40.6669C16.2891 40.3106 15.7109 40.3106 15.3545 40.6669Z" fill="#AFB6BB" stroke="black" stroke-width="0.5"/>
</g>
<defs>
<clipPath id="clip0_0_1">
<rect width="21.2132" height="21.2132" fill="white" transform="translate(16 16) rotate(45)"/>
</clipPath>
</defs>
</svg>
