<svg width="132" height="82" viewBox="0 0 132 82" xmlns="http://www.w3.org/2000/svg">
    <g fill="none" fill-rule="evenodd">
        <path stroke="#000" stroke-width="1.821" fill="#FFF" fill-rule="nonzero" d="M7.787 1h18.099v15.776H7.787zM7.787 16.776h18.099v33.802H7.787z"/>
        <path stroke="#000" stroke-width="1.821" fill="#C21832" fill-rule="nonzero" d="M7.787 50.577h9.05V81h-9.05z"/>
        <path stroke="#000" stroke-width="1.821" fill="#C21832" fill-rule="nonzero" d="M16.834 50.577h9.05V81h-9.05z"/>
        <path stroke="#000" stroke-width="1.821" d="M7.787 65.224h9.047M16.834 65.224h9.049"/>
        <path stroke="#000" stroke-width="1.821" fill="#C21832" fill-rule="nonzero" d="M25.883 16.776h6.787v33.802h-6.787z"/>
        <path stroke="#000" stroke-width="1.821" d="M25.883 33.676h6.787"/>
        <path stroke="#000" stroke-width="1.821" fill="#C21832" fill-rule="nonzero" d="M1 16.776h6.787v33.802H1z"/>
        <path stroke="#000" stroke-width="1.821" d="M1 33.676h6.787"/>
        <path stroke="#C21832" stroke-width=".5" fill="#C21832" fill-rule="nonzero" d="M11.18 10.015h1.695l2.547 2.534 5.373-5.352h1.696l-7.069 7.041z"/>
        <g fill-rule="nonzero" stroke="#000">
            <path stroke-width=".5" fill="#000" d="M47.21 37.31h1.357v6.146H47.21zM53.7 37.31h1.843l2.61 4.271h.017v-4.27h1.357v6.145h-1.766l-2.688-4.374h-.013v4.374H53.7zM67.73 38.812a.983.983 0 0 0-.448-.308 1.654 1.654 0 0 0-.535-.1 1.488 1.488 0 0 0-.304.035c-.103.024-.202.06-.296.109a.639.639 0 0 0-.217.195.494.494 0 0 0-.087.295.486.486 0 0 0 .217.434c.162.11.34.195.526.252l.683.217a2.9 2.9 0 0 1 .683.295c.212.129.392.304.526.512.156.262.232.564.218.868.007.309-.059.615-.191.894a1.804 1.804 0 0 1-.518.634c-.225.172-.483.3-.757.373-.665.18-1.37.159-2.022-.06a2.756 2.756 0 0 1-.957-.59l.965-1.06c.136.187.317.336.527.434.307.151.658.191.991.113a1.11 1.11 0 0 0 .305-.117.652.652 0 0 0 .217-.2.498.498 0 0 0 .083-.286.525.525 0 0 0-.218-.434 2.052 2.052 0 0 0-.535-.274c-.217-.074-.448-.15-.695-.217a2.991 2.991 0 0 1-.696-.304 1.645 1.645 0 0 1-.566-.546 1.423 1.423 0 0 1-.217-.825c-.007-.3.06-.599.195-.868.128-.243.306-.456.522-.625.23-.173.49-.302.766-.38.282-.082.575-.125.87-.126.342 0 .682.05 1.009.148.322.101.618.27.87.495l-.914 1.017zM78.765 41.087a2.99 2.99 0 0 1-.165 1.007 2.172 2.172 0 0 1-1.305 1.328 3.42 3.42 0 0 1-2.253 0 2.182 2.182 0 0 1-1.305-1.328 2.937 2.937 0 0 1-.165-1.007V37.31h1.357v3.724c-.002.18.029.36.091.53a1.232 1.232 0 0 0 .657.704c.158.068.328.102.5.1.17.002.34-.032.496-.1.148-.064.282-.159.391-.277.113-.123.2-.266.257-.421.062-.17.093-.35.091-.53v-3.73h1.353v3.776zM83.919 37.31h2.392c.3 0 .599.03.892.092.263.054.514.157.74.304.212.146.386.343.504.573.133.28.197.588.187.898a1.8 1.8 0 0 1-.34 1.107 1.523 1.523 0 0 1-.991.577l1.566 2.604h-1.627L85.942 41h-.67v2.456h-1.353v-6.145zm1.357 2.544h.8c.122 0 .25 0 .387-.013.127-.007.252-.033.37-.078a.652.652 0 0 0 .274-.204.62.62 0 0 0 .109-.39.65.65 0 0 0-.096-.374.674.674 0 0 0-.243-.217 1.148 1.148 0 0 0-.34-.1 2.78 2.78 0 0 0-.374-.026h-.887v1.402zM95.48 37.31h1.118l2.679 6.146h-1.522l-.531-1.302h-2.392l-.513 1.302h-1.497l2.658-6.145zm.522 1.789-.748 1.91h1.505l-.757-1.91zM103.794 37.31h1.844l2.61 4.271h.02v-4.27h1.356v6.145h-1.774l-2.688-4.374h-.018v4.374h-1.359zM118.808 38.908c-.132-.161-.3-.29-.491-.373a1.632 1.632 0 0 0-.675-.13 1.715 1.715 0 0 0-.708.147 1.74 1.74 0 0 0-.566.412c-.163.185-.29.399-.374.63-.091.253-.137.52-.135.79-.003.27.043.54.135.794.084.229.21.44.37.625.153.174.341.315.552.412.214.1.447.15.683.148a1.458 1.458 0 0 0 1.27-.66l1.13.842c-.249.355-.592.635-.99.807-.39.172-.81.26-1.236.26a3.774 3.774 0 0 1-1.331-.216 3.028 3.028 0 0 1-1.053-.651 2.925 2.925 0 0 1-.691-1.02 3.727 3.727 0 0 1 0-2.674 2.944 2.944 0 0 1 1.744-1.67 3.824 3.824 0 0 1 1.875-.17c.19.033.376.083.556.152.186.071.363.164.527.278.171.12.324.267.452.434l-1.044.833zM124.689 37.31h4.184v1.25h-2.827v1.147h2.67v1.26h-2.67v1.25h2.983v1.25h-4.35zM53.02 16.81a4.865 4.865 0 0 1-1.252.452 6.32 6.32 0 0 1-1.331.139 3.757 3.757 0 0 1-1.331-.217 3.009 3.009 0 0 1-1.053-.651 2.925 2.925 0 0 1-.691-1.02 3.727 3.727 0 0 1 0-2.673c.155-.385.391-.732.691-1.018.303-.287.661-.508 1.053-.651a3.807 3.807 0 0 1 1.331-.217c.46-.004.918.057 1.361.18.406.114.779.323 1.088.61l-.957 1.044a1.894 1.894 0 0 0-.626-.434 2.21 2.21 0 0 0-.87-.15 1.99 1.99 0 0 0-.788.15c-.226.091-.43.228-.6.403-.171.18-.303.395-.387.63-.092.253-.138.52-.135.79-.004.27.042.54.135.794.17.47.53.848.992 1.041.25.1.517.15.787.146.259.005.517-.029.765-.1.178-.052.35-.12.514-.204v-.998H50.61v-1.25h2.41v3.205zM63.66 11.1h1.356v4.897h2.514v1.248h-3.87zM77.343 14.172a3.465 3.465 0 0 1 .248-1.337c.155-.384.39-.731.691-1.017.303-.287.66-.509 1.053-.651.861-.301 1.8-.301 2.662 0 .391.143.75.364 1.052.65.3.287.536.634.692 1.018.33.86.33 1.813 0 2.674a2.925 2.925 0 0 1-.692 1.02c-.302.287-.66.508-1.052.65-.862.301-1.8.301-2.662 0a3.009 3.009 0 0 1-1.053-.65 2.925 2.925 0 0 1-.691-1.02 3.465 3.465 0 0 1-.248-1.337zm1.409 0c-.004.27.041.54.135.794.17.47.53.847.991 1.04a2.203 2.203 0 0 0 1.575 0 1.786 1.786 0 0 0 .992-1.04c.092-.254.137-.523.134-.794a2.291 2.291 0 0 0-.134-.79 1.857 1.857 0 0 0-.388-.63 1.775 1.775 0 0 0-.604-.41c-.506-.199-1.069-.199-1.575 0a1.755 1.755 0 0 0-.991 1.04c-.092.253-.138.52-.135.79zM94.306 11.1h2.292c.269 0 .538.02.804.058.253.028.5.102.727.217.211.11.39.272.522.47.143.245.213.525.2.808a1.3 1.3 0 0 1-.292.868 1.614 1.614 0 0 1-.77.488v.018c.193.026.38.084.553.171.163.08.31.187.435.319.12.133.212.288.274.456.064.178.096.366.095.555a1.48 1.48 0 0 1-.217.814 1.662 1.662 0 0 1-.54.525c-.23.136-.48.232-.743.284-.27.058-.546.087-.822.087H94.3l.005-6.139zm1.357 2.456h.983c.103 0 .207-.012.308-.035a.897.897 0 0 0 .274-.11.651.651 0 0 0 .196-.218.65.65 0 0 0 .074-.314.576.576 0 0 0-.083-.317.613.613 0 0 0-.217-.195 1.102 1.102 0 0 0-.296-.1 1.852 1.852 0 0 0-.322-.03h-.917v1.319zm0 2.543h1.217c.107 0 .214-.012.318-.035a.808.808 0 0 0 .509-.338.65.65 0 0 0 .082-.337.544.544 0 0 0-.108-.351.715.715 0 0 0-.274-.217 1.46 1.46 0 0 0-.357-.093 2.68 2.68 0 0 0-.357-.027h-1.03V16.1zM111.364 11.1h1.122l2.68 6.145h-1.523l-.53-1.302h-2.393l-.513 1.302h-1.496l2.653-6.146zm.522 1.787-.748 1.91h1.505l-.757-1.91zM125.23 11.1h1.357v4.897h2.514v1.248h-3.87zM47.062 63.522h4.132v1.25h-2.775v1.25h2.566v1.25h-2.566v2.387h-1.357zM55.752 66.595A3.465 3.465 0 0 1 56 65.258a2.944 2.944 0 0 1 1.744-1.67c.862-.301 1.8-.301 2.662 0 .391.144.75.365 1.052.65.3.288.536.636.692 1.02.33.861.33 1.813 0 2.674a2.925 2.925 0 0 1-.692 1.02c-.302.287-.66.509-1.052.65-.862.302-1.8.302-2.662 0a3.009 3.009 0 0 1-1.053-.65 2.925 2.925 0 0 1-.691-1.02 3.465 3.465 0 0 1-.248-1.337zm1.41 0c-.005.27.04.54.134.794a1.772 1.772 0 0 0 .992 1.038 2.18 2.18 0 0 0 1.574 0 1.74 1.74 0 0 0 .605-.413c.17-.18.301-.392.387-.625.092-.254.138-.523.135-.794a2.283 2.283 0 0 0-.135-.79 1.857 1.857 0 0 0-.387-.629 1.812 1.812 0 0 0-.605-.412 2.18 2.18 0 0 0-1.574 0 1.76 1.76 0 0 0-.992 1.041c-.092.253-.138.52-.135.79zM67.239 63.522h2.392c.3 0 .599.03.892.092.263.054.514.157.74.303.212.147.386.343.504.573.133.28.197.589.187.899a1.8 1.8 0 0 1-.34 1.106 1.523 1.523 0 0 1-.991.578l1.566 2.604h-1.627l-1.288-2.457h-.67v2.457H67.24v-6.155zm1.357 2.544h.8c.122 0 .25 0 .387-.013.127-.007.252-.034.37-.078a.652.652 0 0 0 .274-.204.62.62 0 0 0 .109-.391.65.65 0 0 0-.096-.373.674.674 0 0 0-.243-.217 1.148 1.148 0 0 0-.34-.1 2.78 2.78 0 0 0-.374-.026h-.887v1.402zM100.606 63.522h1.357v4.896h2.514v1.25h-3.871zM109.122 63.522h1.357v6.146h-1.357zM115.68 63.522h4.133v1.25h-2.773v1.25h2.566v1.25h-2.566v2.387h-1.357zM124.754 63.522h4.184v1.25h-2.827v1.15h2.673v1.25h-2.673v1.25h2.984v1.25h-4.35z"/>
            <path stroke-width="1.821" fill="#FFF" d="M44.187 1.109H132M44.187 27.463H132M44.187 53.818H132M44.187 80.171H132M77.362 68.919h18.185"/>
        </g>
    </g>
</svg>
