<svg width="99" height="62" viewBox="0 0 99 62" xmlns="http://www.w3.org/2000/svg">
    <g stroke="#FFF" fill="none" fill-rule="evenodd">
        <path stroke-width="1.366" d="M6.077 1h13.54v11.832H6.077zM6.077 12.832h13.54v25.351H6.077z"/>
        <path stroke-width="1.366" fill="#C21832" fill-rule="nonzero" d="M6.077 38.183h6.77V61h-6.77z"/>
        <path stroke-width="1.366" fill="#C21832" fill-rule="nonzero" d="M12.845 38.183h6.77V61h-6.77z"/>
        <path stroke-width="1.366" d="M6.077 49.168h6.768M12.845 49.168h6.77"/>
        <path stroke-width="1.366" fill="#C21832" fill-rule="nonzero" d="M19.615 12.832h5.077v25.351h-5.077z"/>
        <path stroke-width="1.366" d="M19.615 25.507h5.077"/>
        <path stroke-width="1.366" fill="#C21832" fill-rule="nonzero" d="M1 12.832h5.077v25.351H1z"/>
        <path stroke-width="1.366" d="M1 25.507h5.077"/>
        <path stroke-width=".5" fill="#FFF" fill-rule="nonzero" d="M8.615 7.76h1.269l1.905 1.902 4.02-4.014h1.268l-5.288 5.28z"/>
        <g fill="#FFF" fill-rule="nonzero">
            <path stroke-width=".2" d="M35.57 28.233h1.014v4.61H35.57zM40.424 28.233h1.38l1.952 3.203h.013v-3.203h1.015v4.61h-1.321l-2.011-3.282h-.01v3.281h-1.018zM50.92 29.36a.735.735 0 0 0-.335-.232 1.234 1.234 0 0 0-.4-.075c-.077.001-.153.01-.228.026a.922.922 0 0 0-.22.082.478.478 0 0 0-.164.146.371.371 0 0 0-.065.222.365.365 0 0 0 .163.325c.12.083.254.146.394.189l.51.163c.18.051.351.126.511.221.159.097.293.228.394.384.117.197.173.423.163.651.005.232-.044.461-.143.67a1.352 1.352 0 0 1-.388.476c-.168.13-.36.224-.566.28a2.602 2.602 0 0 1-1.513-.046 2.061 2.061 0 0 1-.716-.442l.723-.795a1.106 1.106 0 0 0 1.136.41.83.83 0 0 0 .227-.087.488.488 0 0 0 .163-.15.374.374 0 0 0 .062-.215.394.394 0 0 0-.163-.325 1.534 1.534 0 0 0-.4-.206 8.652 8.652 0 0 0-.52-.162 2.235 2.235 0 0 1-.522-.228 1.232 1.232 0 0 1-.423-.41 1.07 1.07 0 0 1-.162-.619c-.005-.225.045-.449.146-.65.095-.183.228-.343.39-.47.172-.13.366-.226.573-.284.212-.062.43-.094.651-.095.256 0 .51.037.755.111.24.076.463.202.65.371l-.683.763zM59.175 31.065c.003.257-.04.512-.123.755-.16.462-.518.828-.976.996-.546.191-1.14.191-1.686 0a1.637 1.637 0 0 1-.976-.996 2.208 2.208 0 0 1-.124-.755v-2.832h1.015v2.793c-.001.135.022.27.069.397a.924.924 0 0 0 .491.529.916.916 0 0 0 .374.075.904.904 0 0 0 .371-.075.869.869 0 0 0 .293-.208.95.95 0 0 0 .192-.316c.047-.127.07-.262.068-.397v-2.798h1.012v2.832zM63.031 28.233h1.79c.224 0 .447.022.667.068.197.041.384.118.553.228.16.11.289.258.377.43.1.21.148.441.14.674.009.297-.08.589-.254.83a1.139 1.139 0 0 1-.742.433l1.172 1.953h-1.217l-.973-1.85h-.501v1.843h-1.012v-4.609zm1.015 1.908h.599c.091 0 .187 0 .29-.01a.917.917 0 0 0 .276-.059.488.488 0 0 0 .205-.153.466.466 0 0 0 .081-.293.488.488 0 0 0-.071-.28.504.504 0 0 0-.182-.162.857.857 0 0 0-.254-.075 2.075 2.075 0 0 0-.28-.02h-.664v1.052zM71.68 28.233h.836l2.004 4.61h-1.139l-.397-.977h-1.79l-.383.976h-1.12l1.989-4.609zm.39 1.341-.56 1.432h1.126l-.566-1.432zM77.9 28.233h1.379l1.952 3.203h.015v-3.203h1.015v4.61h-1.328l-2.01-3.282h-.014v3.281h-1.016zM89.131 29.431a.994.994 0 0 0-.367-.28 1.218 1.218 0 0 0-.505-.098 1.28 1.28 0 0 0-.53.111c-.16.073-.305.179-.423.31a1.481 1.481 0 0 0-.28.471c-.068.19-.102.39-.1.593-.003.203.031.404.1.595.063.172.156.331.277.47.114.13.255.235.413.308.16.075.334.113.51.111a1.092 1.092 0 0 0 .95-.495l.847.632a1.762 1.762 0 0 1-.742.605 2.293 2.293 0 0 1-.924.195 2.817 2.817 0 0 1-.996-.162 2.264 2.264 0 0 1-.787-.489 2.194 2.194 0 0 1-.518-.765 2.802 2.802 0 0 1 0-2.005 2.209 2.209 0 0 1 1.305-1.253 2.854 2.854 0 0 1 1.403-.127c.142.025.281.063.416.114.14.054.271.124.394.209.128.09.242.2.338.325l-.78.625zM93.53 28.233h3.13v.938h-2.114v.859h1.997v.945h-1.997v.938h2.232v.937h-3.254zM39.916 12.858c-.295.155-.61.27-.937.339-.327.07-.661.104-.996.104a2.804 2.804 0 0 1-.995-.163 2.25 2.25 0 0 1-.788-.488 2.194 2.194 0 0 1-.517-.765 2.802 2.802 0 0 1 0-2.005c.116-.289.293-.549.517-.764.227-.215.495-.38.788-.488.32-.113.656-.168.995-.163a3.67 3.67 0 0 1 1.019.135c.303.086.582.243.813.458l-.716.783a1.417 1.417 0 0 0-.468-.326 1.65 1.65 0 0 0-.65-.112 1.485 1.485 0 0 0-.59.112c-.169.069-.322.172-.449.303a1.344 1.344 0 0 0-.29.472c-.068.19-.102.39-.1.592-.003.203.03.405.1.596.127.353.396.637.742.781.188.075.388.112.59.11.193.003.386-.022.572-.076a2.13 2.13 0 0 0 .384-.153v-.748h-.826v-.938h1.802v2.404zM47.875 8.574h1.015v3.674h1.88v.936h-2.895zM58.111 10.879a2.605 2.605 0 0 1 .186-1.003c.116-.288.292-.548.517-.763.226-.215.494-.381.788-.488a3.014 3.014 0 0 1 1.99 0c.294.107.562.273.788.488.225.215.401.475.518.763.247.646.247 1.36 0 2.006-.117.288-.293.55-.518.764a2.264 2.264 0 0 1-.787.489 3.014 3.014 0 0 1-1.991 0 2.25 2.25 0 0 1-.788-.489 2.194 2.194 0 0 1-.517-.764 2.605 2.605 0 0 1-.186-1.003zm1.055 0c-.004.203.03.405.1.596.127.352.397.635.742.78.38.145.799.145 1.178 0a1.336 1.336 0 0 0 .742-.78c.069-.191.103-.393.1-.596a1.722 1.722 0 0 0-.1-.592 1.393 1.393 0 0 0-.29-.472 1.328 1.328 0 0 0-.452-.308 1.6 1.6 0 0 0-1.178 0 1.313 1.313 0 0 0-.742.78c-.068.19-.103.39-.1.592zM70.801 8.574h1.715c.201 0 .402.015.602.044.19.022.373.077.543.163.158.083.293.204.39.353.108.183.16.394.15.606a.977.977 0 0 1-.218.65 1.207 1.207 0 0 1-.576.367v.013c.144.02.284.063.414.129.122.059.232.14.325.239.09.1.159.216.205.342.048.133.072.274.072.416.005.215-.051.427-.163.61-.103.16-.24.296-.404.394-.172.102-.36.174-.556.214a2.948 2.948 0 0 1-.615.065h-1.887l.003-4.605zm1.015 1.843h.736c.077 0 .155-.009.23-.026a.67.67 0 0 0 .206-.083.488.488 0 0 0 .146-.163.488.488 0 0 0 .055-.236.433.433 0 0 0-.061-.238.459.459 0 0 0-.163-.146.823.823 0 0 0-.221-.075 1.382 1.382 0 0 0-.241-.023h-.687v.99zm0 1.907h.911c.08 0 .16-.009.238-.026a.603.603 0 0 0 .38-.254.488.488 0 0 0 .062-.252.409.409 0 0 0-.081-.264.535.535 0 0 0-.205-.162 1.09 1.09 0 0 0-.267-.07 2 2 0 0 0-.267-.02h-.77v1.048zM83.562 8.574h.84l2.004 4.61h-1.139l-.397-.977h-1.79l-.383.977h-1.12l1.985-4.61zm.39 1.342-.559 1.432h1.126l-.566-1.432zM93.935 8.574h1.016v3.674h1.88v.936h-2.896zM35.458 47.892h3.092v.937h-2.076v.938h1.92v.937h-1.92v1.79h-1.016zM41.96 50.196a2.605 2.605 0 0 1 .185-1.002 2.209 2.209 0 0 1 1.305-1.253 3.014 3.014 0 0 1 1.991 0 2.209 2.209 0 0 1 1.305 1.253c.247.645.247 1.36 0 2.005-.116.289-.293.55-.518.765a2.264 2.264 0 0 1-.787.488 3.014 3.014 0 0 1-1.991 0 2.25 2.25 0 0 1-.788-.488 2.194 2.194 0 0 1-.517-.765 2.605 2.605 0 0 1-.185-1.003zm1.054 0c-.003.203.03.405.1.596a1.33 1.33 0 0 0 .742.778c.38.147.8.147 1.178 0 .171-.07.325-.175.453-.31.127-.134.225-.294.29-.468.068-.19.102-.393.1-.596a1.716 1.716 0 0 0-.1-.592 1.393 1.393 0 0 0-.29-.472 1.355 1.355 0 0 0-.453-.31 1.626 1.626 0 0 0-1.178 0 1.318 1.318 0 0 0-.741.782c-.07.19-.104.39-.101.592zM50.553 47.892h1.79c.223-.001.447.022.666.068.197.04.385.118.554.228.159.11.289.257.377.43.1.21.147.441.14.673.009.298-.08.59-.254.83a1.139 1.139 0 0 1-.742.433l1.172 1.953h-1.217l-.963-1.842h-.502v1.842h-1.021v-4.615zm1.015 1.907h.599c.09 0 .187 0 .29-.01a.917.917 0 0 0 .276-.058.488.488 0 0 0 .205-.153.466.466 0 0 0 .081-.293.488.488 0 0 0-.071-.28.504.504 0 0 0-.183-.163.857.857 0 0 0-.253-.075 2.075 2.075 0 0 0-.28-.02h-.664V49.8zM75.514 47.892h1.015v3.671h1.881v.938h-2.896zM81.885 47.892H82.9V52.5h-1.015zM86.792 47.892h3.09v.937H87.81v.938h1.92v.937h-1.92v1.79h-1.016zM93.58 47.892h3.13v.937h-2.116v.863h2v.937h-2v.938h2.232v.937h-3.253z"/>
            <path stroke-width="1.366" d="M33.308 1.081H99M33.308 20.847H99M33.308 40.614H99M33.308 60.378H99M58.126 51.939H71.73"/>
        </g>
    </g>
</svg>
