<svg width="40" height="78" viewBox="0 0 40 78" xmlns="http://www.w3.org/2000/svg">
    <g fill="none" fill-rule="evenodd">
        <path fill="#C21832" fill-rule="nonzero" d="M1.357 15.987H7.88v32.112H1.357z"/>
        <path fill="#FFF" fill-rule="nonzero" d="M7.527 1.255h17.488v46.846H7.527z"/>
        <path fill="#C21832" fill-rule="nonzero" d="M25.273 15.987h6.523v32.112h-6.523zM7.88 48.098h8.697V77H7.88z"/>
        <path fill="#C21832" fill-rule="nonzero" d="M16.576 48.098h8.697V77h-8.697z"/>
        <path stroke="#000" stroke-width="1.749" d="M1.357 15.987h30.436v32.112H1.357z"/>
        <path stroke="#000" stroke-width="1.749" d="M7.88 1h17.394v75.997H7.88zM16.576 47.858V77M7.88 62.013h16.937M1.357 32.043H7.88M25.273 32.043h6.52"/>
        <path stroke="#000" stroke-width="1.402" fill="#FFF" fill-rule="nonzero" d="M25.27 37.793h6.523v10.305H25.27z"/>
        <path stroke="#000" stroke-width="1.586" d="m31.793 46.986-6.52-1.927v-.924l6.52-1.069V40.72l-6.523-.62M35.63 47.809h3.727M31.5 51.876v3.671M34.42 50.686l2.636 2.595"/>
    </g>
</svg>
