<?xml version="1.0" encoding="UTF-8"?>
<svg width="25px" height="17px" viewBox="0 0 25 17" version="1.1" xmlns="http://www.w3.org/2000/svg" xmlns:xlink="http://www.w3.org/1999/xlink">
    <title>Group 6 Copy</title>
    <g id="GI4L-tablet" stroke="none" stroke-width="1" fill="none" fill-rule="evenodd">
        <g id="Tablet---Alert-&amp;-News-local" transform="translate(-44.000000, -300.000000)" fill="#54BEC7" fill-rule="nonzero">
            <g id="Group-6-Copy" transform="translate(44.000000, 300.000000)">
                <path d="M0,2.23626068 L2,2.23626068 C2,8.15250548 2,12.3951069 2,14.964065 C2,15.8131839 1.67159286,16.2372492 1.01477858,16.2362607 C0.454331847,16.2362607 0,15.6666716 0,14.964065 L0,2.24224741 L0,2.23626068 Z" id="Path"></path>
                <path d="M25,0 L25,15.6569811 C25.0004164,16.0130266 24.8597936,16.3546329 24.6091101,16.6065433 C24.3584266,16.8584537 24.0182497,17 23.6635211,17 L1.37735844,17 C2.1163432,17 2.7154087,16.3987099 2.7154087,15.6569811 L2.7154087,0 L25,0 Z M12.9669807,12.0682325 L4.94496837,12.0682325 L4.94496837,14.3044931 L12.9669807,14.3044931 L12.9669807,12.0682325 Z M22.7720117,12.0682325 L14.7499995,12.0682325 L14.7499995,14.3044931 L22.7720117,14.3044931 L22.7720117,12.0682325 Z M12.9669807,8.05180097 L4.94496837,8.05180097 L4.94496837,10.2880616 L12.9669807,10.2880616 L12.9669807,8.05180097 Z M22.7720117,8.05180097 L14.7499995,8.05180097 L14.7499995,10.2880616 L22.7720117,10.2880616 L22.7720117,8.05180097 Z M22.7735841,2.23626068 L4.94496837,2.23626068 L4.94496837,6.27320832 L22.7735841,6.27320832 L22.7735841,2.23626068 Z" id="Combined-Shape"></path>
            </g>
        </g>
    </g>
</svg>