<svg width="31" height="31" viewBox="0 0 31 31" fill="none" xmlns="http://www.w3.org/2000/svg">
<path d="M2.5 28.5H4.33333L22.7917 10.0417L20.9583 8.20837L2.5 26.6667V28.5ZM28.0833 8.25004L22.75 2.91671L24.5 1.16671C24.9722 0.694485 25.5556 0.458374 26.25 0.458374C26.9444 0.458374 27.5278 0.694485 28 1.16671L29.8333 3.00004C30.3056 3.47226 30.5417 4.0556 30.5417 4.75004C30.5417 5.44449 30.3056 6.02782 29.8333 6.50004L28.0833 8.25004ZM26.3333 10L5.33333 31H0V25.6667L21 4.66671L26.3333 10ZM21.875 9.12504L20.9583 8.20837L22.7917 10.0417L21.875 9.12504Z" fill="black"/>
</svg>
