<svg width="70" height="46" viewBox="0 0 70 46" xmlns="http://www.w3.org/2000/svg">
    <g fill-rule="nonzero" stroke="#000" stroke-width=".984" fill="none">
        <path fill="#FFF" d="M4.505 9.385h21.902V39.37H4.505z"/>
        <path fill="#54BEC7" d="M7.656 12.959h2.755v3.4H7.656zM7.656 19.482h2.755v3.4H7.656zM7.656 26.008h2.755v3.4H7.656zM14.078 12.959h2.755v3.4h-2.755zM14.078 19.482h2.755v3.4h-2.755zM14.078 26.008h2.755v3.4h-2.755zM20.503 12.959h2.755v3.4h-2.755zM20.503 19.482h2.755v3.4h-2.755zM20.503 26.008h2.755v3.4h-2.755z"/>
        <path d="m22.75 28.358 9.335-9.338a.032.032 0 0 1 .055.023v9.009a.032.032 0 0 0 .054.023l9.281-9.055a.032.032 0 0 1 .055.023v9.242a.032.032 0 0 0 .055.023l9.18-9.288a.034.034 0 0 1 .057.023v9.32H69.5V45.5H22.75V28.358z" fill="#C21832"/>
        <path fill="#FFF" d="M64.021 4.48h-6.58L57.685.5h6.048z"/>
        <path fill="#C21832" d="M64.311 8.46h-7.114l.244-3.98h6.58z"/>
        <path fill="#FFF" d="M64.6 12.44h-7.648l.245-3.98h7.114z"/>
        <path fill="#C21832" d="M64.887 16.418h-8.186l.251-3.978H64.6z"/>
        <path fill="#FFF" d="M65.175 20.4H56.46l.24-3.982h8.186z"/>
        <path fill="#C21832" d="M65.472 24.378h-9.256l.245-3.979h8.714z"/>
        <path fill="#FFF" d="M65.75 28.356h-9.778l.244-3.978h9.256z"/>
        <path fill="#54BEC7" d="M26.409 33.37h11.029v4.033H26.409zM40.609 33.37h11.029v4.033H40.609zM54.809 33.37h11.029v4.033H54.809z"/>
        <path fill="#FFF" d="M.5 33.37h22.249v12.125H.5z"/>
        <path fill="#54BEC7" d="M4.505 37.404h4.54v8.092h-4.54z"/>
    </g>
</svg>
