<?xml version="1.0" encoding="UTF-8"?>
<!-- Uploaded to: SVG Repo, www.svgrepo.com, Generator: SVG Repo Mixer Tools -->
<svg width="644.33435" height="716.37347" fill="none" version="1.1" viewBox="0 0 19.330031 21.491204" xmlns="http://www.w3.org/2000/svg">
 <g stroke="#292d32" stroke-linecap="round" stroke-linejoin="round" stroke-width="1.5">
  <path d="m18.57003 9.8628075c0 4.8899995-3.55 9.4699995-8.4 10.8099995-0.33 0.09-0.69 0.09-1.02 0-4.85004-1.34-8.40003-5.92-8.40003-10.8099995v-4.39003c0-0.82 0.62001-1.74999 1.39001-2.05999l5.57002-2.27997c1.25-0.51000003 2.66-0.51000003 3.91 0l5.57 2.27997c0.76 0.31 1.39 1.23999 1.39 2.05999z"/>
  <path d="m9.66003 11.242807c1.1046 0 2-0.8954 2-1.9999995 0-1.10457-0.8954-2-2-2s-2 0.89543-2 2c0 1.1045995 0.8954 1.9999995 2 1.9999995z" stroke-miterlimit="10"/>
  <path d="m9.66003 11.242807v3" stroke-miterlimit="10"/>
 </g>
</svg>
