<?xml version="1.0" encoding="UTF-8"?>
<svg width="38.4063" height="42.228298" fill="none" version="1.1" viewBox="0 0 38.4063 42.228298" xmlns="http://www.w3.org/2000/svg">
 <g stroke="#000" stroke-linecap="round" stroke-linejoin="round" stroke-width="4">
  <path d="m2 9.64563h34.4063"/>
  <path d="m32.5808 9.64565v26.76065c0 0.5019-0.0988 0.9989-0.2909 1.4626s-0.4736 0.885-0.8285 1.2399-0.7762 0.6365-1.2399 0.8285c-0.4637 0.1921-0.9607 0.291-1.4626 0.291h-19.11503c-0.50191 0-0.99889-0.0989-1.46259-0.291-0.4637-0.192-0.88503-0.4736-1.23993-0.8285s-0.63642-0.7762-0.82849-1.2399-0.29093-0.9607-0.29093-1.4626v-26.76065m5.73377 0v-3.82371c0-1.01364 0.4027-1.98577 1.1194-2.70252 0.7168-0.71675 1.6889-1.11942 2.7026-1.11942h7.6474c1.0136 0 1.9858 0.40267 2.7025 1.11942 0.7168 0.71675 1.1194 1.68888 1.1194 2.70252v3.82371"/>
  <path d="m15.3795 19.2014v11.4676"/>
  <path d="m23.0251 19.2014v11.4676"/>
 </g>
</svg>
