<svg width="63" height="80" viewBox="0 0 63 80" xmlns="http://www.w3.org/2000/svg" xmlns:xlink="http://www.w3.org/1999/xlink">
    <defs>
        <path id="9vpzg5f3qa" d="M0 0h9.175v11.867H0z"/>
    </defs>
    <g fill="none" fill-rule="evenodd">
        <path d="M55.438 76.837a102.553 102.553 0 0 1-47.926 0v-7.982a102.536 102.536 0 0 0 47.926 0v7.982" fill="#D8232A"/>
        <path d="M55.359 68.527c-15.625 3.755-32.143 3.755-47.768 0l-.416-.1v8.676l.258.062c15.729 3.78 32.355 3.78 48.083 0l.26-.062v-8.676l-.417.1zm0 7.981c-15.625 3.756-32.143 3.756-47.768 0l.259.329v-7.982l-.417.329c15.729 3.78 32.355 3.78 48.083 0l-.416-.33v7.983l.259-.329z" fill="#C59E54"/>
        <g transform="translate(0 63.462)">
            <mask id="aljvfyiorb" fill="#fff">
                <use xlink:href="#9vpzg5f3qa"/>
            </mask>
            <path d="M7.516 5.387s.964-.26 1.254-1.042c0 0 .353-.586-.547-1.302C6.66 1.798 4.69 1.223 2.745.913a18.171 18.171 0 0 1-1.62-.33A7.392 7.392 0 0 1 .6.435a.822.822 0 0 0 .005.353c.046.27.127.536.219.794.143.403.327.791.56 1.149.327.502.744.934 1.196 1.32.602.515 1.26.957 1.917 1.395.072.046.174.148.255.169l.257.064S2.247 6.07.898 8.674l-.386.684s3.181.26 6.973 1.985l.031-5.956" fill="#D8232A" mask="url(#aljvfyiorb)"/>
            <path d="M7.624 11.036C3.823 9.306.672 9.032.54 9.022l.266.502.385-.684c1.26-2.432 3.84-2.822 3.866-2.826l.036-.662-.257-.065c.017.005.026.01.027.01-.016-.009-.056-.04-.08-.06a1.265 1.265 0 0 0-.1-.074c-.597-.397-1.276-.85-1.883-1.368-.485-.415-.855-.824-1.132-1.248a5.077 5.077 0 0 1-.525-1.078A4.467 4.467 0 0 1 .938.73a.547.547 0 0 1-.01-.21L.494.755c.176.06.352.105.548.155.518.132 1.058.242 1.65.336 2.33.371 4.02 1.026 5.322 2.062.635.506.468.858.461.873l-.008.016-.014.03c-.224.605-1.018.832-1.026.834l-.245.068c-.002 0-.003.256-.003.256l-.032 5.957.477-.306zm-.02-5.323c.047-.013 1.136-.317 1.481-1.25l-.027.057c.02-.035.494-.85-.624-1.741C7.038 1.668 5.247.969 2.798.579a17.65 17.65 0 0 1-1.59-.324 6.512 6.512 0 0 1-.499-.14L.366 0 .275.35a1.14 1.14 0 0 0-.001.496c.044.255.118.525.234.85.158.445.358.856.595 1.22.312.48.724.935 1.26 1.393.59.505 1.206.923 1.948 1.418a.82.82 0 0 1 .053.04c.08.064.181.144.308.175l.256.065.035-.662c-.12.017-2.951.447-4.365 3.174l-.38.673-.258.46.525.043c.031.002 3.172.278 6.86 1.956l.474.216.035-6.479-.25.325z" fill="#C59E54" mask="url(#aljvfyiorb)"/>
        </g>
        <path d="M55.444 68.85s-.964-.261-1.254-1.043c0 0-.353-.585.547-1.302 1.563-1.244 3.534-1.82 5.478-2.13a18.22 18.22 0 0 0 1.62-.33c.177-.045.354-.09.524-.148a.822.822 0 0 1-.005.353c-.047.271-.127.537-.22.795-.142.403-.326.79-.56 1.148-.326.502-.744.934-1.195 1.32-.602.515-1.26.957-1.918 1.395-.07.047-.173.149-.255.169l-.257.065s2.764.39 4.113 2.995l.386.683s-3.181.26-6.972 1.986l-.032-5.957" fill="#D8232A"/>
        <path d="M55.615 75.114c3.688-1.679 6.83-1.955 6.86-1.957l.525-.044-.258-.459-.386-.683c-1.407-2.717-4.24-3.147-4.36-3.164l.036.662.257-.065c.126-.031.226-.111.307-.175a.894.894 0 0 1 .051-.04c.585-.388 1.311-.871 1.95-1.419.536-.458.949-.914 1.26-1.392.236-.363.437-.774.596-1.22.115-.323.19-.593.233-.85a1.124 1.124 0 0 0-.001-.497l-.092-.35-.342.116a6.512 6.512 0 0 1-.498.14c-.498.128-1.018.234-1.591.325-2.45.39-4.24 1.088-5.635 2.2-1.12.89-.646 1.706-.625 1.74l-.028-.057c.346.933 1.436 1.238 1.481 1.25l-.248-.324.035 6.478.473-.215zm-.083-6.59c-.007-.003-.802-.23-1.025-.834l-.012-.03-.016-.028c-.002-.004-.168-.356.468-.862 1.3-1.036 2.99-1.691 5.32-2.062a17.865 17.865 0 0 0 1.652-.336c.195-.05.371-.095.547-.155l-.433-.234a.561.561 0 0 1-.012.21 4.32 4.32 0 0 1-.204.737c-.14.398-.317.76-.524 1.079-.277.424-.647.832-1.134 1.248-.563.483-1.16.889-1.885 1.37-.033.022-.066.048-.097.072a.685.685 0 0 1-.08.06s.01-.005.028-.01l-.258.065.036.662c.025.004 2.611.405 3.86 2.816l.391.694.266-.502c-.132.01-3.283.285-7.084 2.014l.477.306-.033-6.214-.248-.067z" fill="#C59E54"/>
        <path d="M14.234 73.04c-.77-.152-1.54-.314-2.306-.485v2.565c0 .173.074.277.222.309.213.048.5-.11.863-.475.097-.095.153-.242.169-.44l-.116-.024a.64.64 0 0 1-.345-.2.505.505 0 0 1-.145-.35c0-.031.005-.068.015-.112.056-.254.213-.353.47-.299.252.053.446.221.586.505.056.119.092.272.107.458.016.213-.015.4-.091.564-.052.112-.162.264-.332.453-.22.25-.522.404-.906.458a.625.625 0 0 1-.437-.165c-.23-.215-.368-.44-.414-.674-.02-.102-.026-.988-.015-2.658a57.127 57.127 0 0 1-.567-.13l-.375-.48c1.072.257 2.146.494 3.225.712l.392.468" fill="#FFFFFE"/>
        <path d="m15.794 73.333-.658-.12v4.01l-.367-.466v-2.859a1.365 1.365 0 0 0-.031-.226.605.605 0 0 0-.076-.198c-.16-.265-.365-.42-.616-.47l-.1-.021-.39-.47c.22.02.422.061.607.123.27.094.466.304.584.633.04.09.1.256.177.5a23.918 23.918 0 0 1-.113-.897 7.288 7.288 0 0 1-.042-.815l.146.152.03.207c.005.042.029.119.074.23.024.046.063.105.117.176l.27.05.388.46" fill="#FFFFFE"/>
        <path d="M18.018 76.519V74.51a4.444 4.444 0 0 0-.883.282 19.19 19.19 0 0 1-.491.264c.618.37 1.076.854 1.374 1.462zm2.153-2.516a87.114 87.114 0 0 1-1.764-.243v.28a.16.16 0 0 1 .078-.004c.254.038.529.203.824.493.373.37.558.791.553 1.27a.708.708 0 0 1-.17.462.5.5 0 0 1-.457.16.57.57 0 0 1-.408-.265.48.48 0 0 1-.093-.273c0-.143.072-.263.216-.36a.771.771 0 0 1 .224-.008c.16.023.287.104.38.243.015.023.023.001.023-.066 0-.23-.101-.458-.303-.685-.248-.279-.536-.427-.867-.446v3.06l-.14-.158-.115-.354c-.047-.144-.16-.335-.34-.575a2.762 2.762 0 0 0-.472-.515 2.694 2.694 0 0 0-.943-.485l-.532-.743c.208-.13.445-.253.71-.366a5.923 5.923 0 0 1 1.443-.426v-.298a89.035 89.035 0 0 1-2.342-.39c-.13-.152-.26-.306-.389-.46 1.497.276 3 .513 4.505.712l.38.44z" fill="#FFFFFE"/>
        <path d="M21.777 74.193c-.222-.024-.443-.05-.664-.076v4.01l-.37-.44V74.83a1.34 1.34 0 0 0-.03-.225.548.548 0 0 0-.078-.192c-.16-.254-.367-.396-.62-.43l-.1-.012-.396-.443c.222.004.427.03.612.08.275.076.471.273.59.594.042.086.101.249.179.487-.014-.073-.053-.37-.114-.89a7.205 7.205 0 0 1-.043-.811l.148.142.03.204c.005.042.03.117.074.225.024.045.063.1.118.17l.273.03.39.435M27.843 73.84c-.22-.172-.442-.344-.663-.519a2.374 2.374 0 0 0-1.363-.52c-.29-.019-.54.033-.748.156l-.186.11a2.088 2.088 0 0 0-.18.193c-.197.237-.285.39-.264.464l.148.34c.137.012.275.022.412.032l.39.418-.68-.049v3.873l-.391-.406v-3.498c-.189-.015-.379-.03-.568-.048l-.385-.425c.335.032.67.06 1.004.087l-.343-.39c-.035-.038-.053-.098-.053-.18a.56.56 0 0 1 .077-.315c.135-.204.23-.332.288-.383.145-.138.35-.257.615-.36a1.18 1.18 0 0 1 .506-.064c.498.033 1.033.239 1.605.615.176.116.407.323.693.621l.086.249" fill="#FFFFFE"/>
        <path d="M27.758 77.523v-2.015c-.458.14-.954.37-1.49.691.67.325 1.167.764 1.49 1.324zm1.122-2.839a65.189 65.189 0 0 1-.729-.024v3.957l-.202-.298a3.542 3.542 0 0 0-.273-.54 2.249 2.249 0 0 0-.747-.732 2.523 2.523 0 0 0-.98-.37l-.498-.728a7.93 7.93 0 0 1 .953-.538c.516-.23.967-.4 1.354-.507v-.26a88.66 88.66 0 0 1-2.503-.14l-.38-.417c1.207.09 2.414.155 3.623.195l.382.402z" fill="#FFFFFE"/>
        <path d="m32.902 74.711-.652.008v3.914a214.57 214.57 0 0 1-.402-.388l.03-2.392c0-.112-.08-.286-.242-.52-.188-.271-.362-.4-.518-.385a.589.589 0 0 0-.251.091c-.1.061-.149.13-.149.206.063.047.162.124.298.232.193.15.29.323.29.523 0 .142-.016.23-.047.26a.352.352 0 0 1-.184.172.612.612 0 0 1-.269.063c-.23-.002-.424-.137-.586-.405a.711.711 0 0 1-.254.31.595.595 0 0 1-.37.131c-.224-.005-.375-.14-.453-.406a.462.462 0 0 1-.023-.138c0-.209.106-.409.319-.603l.203-.155a.296.296 0 0 1 .148-.066 1.497 1.497 0 0 0-.218-.324.591.591 0 0 0-.344-.145l-.483-.014-.39-.403c.269.01.537.017.805.024.182.005.34.058.476.158l.188.181c.12.126.192.258.22.398a1.41 1.41 0 0 1 .21-.345c.135-.15.326-.257.57-.326a.876.876 0 0 1 .172-.037c.109 0 .266.129.47.382.071.09.173.24.304.447.145.223.232.372.258.448l-.11-1.241-.04-.721c.073.061.153.139.24.23.032.053.05.11.052.175a.448.448 0 0 0 .011.112c.042.093.152.149.334.167l.387.382" fill="#FFFFFE"/>
        <path d="M31.846 78.198v-1.28a8.514 8.514 0 0 0-.824.552c.183.042.358.156.526.346l.298.382zm.34.721a76.907 76.907 0 0 1-.259-.114c-.24-.588-.634-.88-1.186-.885l-.265-.702c.037-.031.497-.316 1.381-.871l.133-.001.195-.001v2.574zM36.855 73.753c-.221-.15-.442-.3-.662-.453a2.173 2.173 0 0 0-1.364-.381c-.292.01-.54.088-.748.231l-.187.128a2.614 2.614 0 0 0-.18.212c-.198.256-.286.419-.265.49l.148.327.414-.011.39.379-.68.02v3.871l-.393-.365v-3.498l-.57.01-.385-.386c.335-.003.67-.008 1.006-.015l-.343-.355c-.037-.034-.055-.093-.055-.175 0-.133.026-.241.078-.324a2.78 2.78 0 0 1 .29-.412c.144-.152.35-.291.615-.422.146-.07.314-.108.507-.115.499-.016 1.033.134 1.605.453.176.098.408.282.694.551l.085.24" fill="#FFFFFE"/>
        <path d="M36.772 77.445v-2.016c-.458.186-.955.467-1.49.842.67.257 1.165.646 1.49 1.174zm1.12-2.953c-.243.017-.486.034-.728.049v3.957a72.065 72.065 0 0 1-.202-.278 3.264 3.264 0 0 0-.273-.512 1.935 1.935 0 0 0-.746-.656 2.314 2.314 0 0 0-.981-.27l-.498-.678c.366-.273.684-.484.952-.635.516-.282.968-.498 1.356-.643v-.26c-.835.05-1.67.086-2.506.113l-.38-.38a88.99 88.99 0 0 0 3.624-.17l.381.363z" fill="#FFFFFE"/>
        <path d="M41.494 74.16c-.972.109-1.944.203-2.918.28v1.607c0 .01.09-.071.271-.245.233-.223.37-.353.412-.387a4.928 4.928 0 0 1 1.055-.674l.675.429c-.259.518-.412.954-.458 1.31-.052.404-.065.701-.04.893-.004.072.035.34.117.807l-.264-.103-.1-.45a5.59 5.59 0 0 1-.132-.99 4.11 4.11 0 0 1 .124-1.12 2.57 2.57 0 0 0-.763.493c-.388.371-.655.748-.8 1.133l-.521-.486v-2.184l-.397.029-.398-.364a90.217 90.217 0 0 0 3.74-.325l.397.346" fill="#FFFFFE"/>
        <path d="M42.523 74.517c-.01.064-.013.194-.008.393.005.225.033.48.085.764.031.16.076.397.132.711.021.162.031.283.031.365 0 .425-.219.8-.659 1.124-.218.16-.375.242-.474.248-.092.005-.154-.034-.185-.117-.021-.054.017-.099.116-.135.145-.052.23-.09.256-.114.17-.153.272-.254.303-.304.067-.11.113-.286.139-.529.01-.108-.033-.343-.132-.703-.103-.386-.155-.662-.155-.83 0-.271.07-.542.21-.814.123-.178.245-.36.364-.542-.361.046-.724.088-1.086.129-.132-.116-.264-.23-.396-.347a88.36 88.36 0 0 0 1.924-.229l.388.306a2.854 2.854 0 0 0-.156.013.886.886 0 0 0-.453.205.66.66 0 0 0-.244.406" fill="#FFFFFE"/>
        <path d="M44.965 73.699c-.22.034-.44.066-.661.098v4.01l-.369-.344v-2.859a1.196 1.196 0 0 0-.03-.216.418.418 0 0 0-.078-.173.627.627 0 0 0-.619-.266l-.101.013-.396-.339c.223-.054.427-.08.614-.08.273.005.47.15.588.44.041.075.1.222.178.44-.014-.07-.052-.357-.113-.86a6.626 6.626 0 0 1-.043-.8l.147.103.03.197a.79.79 0 0 0 .074.206.86.86 0 0 0 .118.137c.09-.012.181-.026.272-.04l.389.333" fill="#FFFFFE"/>
        <path d="M48.915 72.994c-.215.042-.431.085-.647.126v3.936c-.13-.1-.258-.201-.388-.303v-2.125c0-.124-.06-.23-.18-.319a.4.4 0 0 0-.368-.076c-.088.026-.157.09-.207.191a.449.449 0 0 0-.05.279l.03.187-.161.09c.01-.027-.015-.083-.077-.169-.098-.14-.17-.225-.216-.253-.138-.112-.321-.15-.546-.112a.827.827 0 0 0-.436.216.793.793 0 0 0-.243.42.836.836 0 0 0-.023.165c0 .29.169.437.507.437a.42.42 0 0 1-.108-.28c0-.113.044-.217.131-.313a.52.52 0 0 1 .301-.173c.186-.035.321.05.409.26.072.17.093.294.061.371a.707.707 0 0 1-.578.465c-.222.038-.419.02-.589-.05-.335-.14-.502-.42-.502-.839 0-.27.07-.52.209-.752.16-.258.368-.41.625-.459.273-.05.513.01.719.178l.139.152c0-.081.058-.188.173-.322.115-.132.214-.203.296-.213a.52.52 0 0 1 .362.073c.04.05.084.097.13.144.071.058.136.167.192.325v-1.058c-.994.186-1.991.355-2.99.506l-.403-.33a88.915 88.915 0 0 0 4.028-.687l.4.312" fill="#FFFFFE"/>
        <path d="M51.351 75.424v-2.94c-.463.105-.926.207-1.389.305.107.044.238.116.391.215.062.037.238.198.53.48a6.12 6.12 0 0 1-.399.46c-.088.091-.258.312-.515.661a1.841 1.841 0 0 1 1.382.82zm-1.124.98a.357.357 0 0 1-.3-.058.309.309 0 0 1-.13-.264c0-.107.037-.208.112-.303a.463.463 0 0 1 .272-.177.372.372 0 0 1 .3.054c.086.06.13.147.13.26 0 .107-.038.21-.115.308a.466.466 0 0 1-.269.18zm2.123-4.154-.614.145v3.946l-.16-.139a31.775 31.775 0 0 0-.168-.314 1.766 1.766 0 0 0-.452-.496 1.5 1.5 0 0 0-.62-.287c-.147-.023-.37-.012-.667.035l-.513-.547a14.353 14.353 0 0 1 1.136-1.22.937.937 0 0 0-.161-.11c-.138-.052-.33-.065-.576-.04-.307.033-.53-.035-.668-.2l-.408-.324a89.331 89.331 0 0 0 3.474-.745l.397.296z" fill="#FFFFFE"/>
        <path d="M55.38 0H6.905v57.784c0 4.126 3.353 7.483 7.474 7.483H24.73c1.506.007 2.903.376 3.978.965h5.547c1.077-.59 2.473-.958 3.98-.965H48.58c4.12 0 7.474-3.357 7.474-7.483V0h-.675" fill="#403C73"/>
        <path d="M8.255 30.903h46.449V1.35H8.255v29.552zm46.45 7.566v19.315c0 3.382-2.749 6.132-6.126 6.132H38.232c-2.521.012-4.737.896-6.078 2.223V32.254h22.55v6.215zm-23.9 27.668c-1.34-1.325-3.554-2.208-6.073-2.22H14.38c-3.377 0-6.125-2.751-6.125-6.133v-25.53h22.55v33.883zM55.38 0H6.906v57.784c0 4.126 3.353 7.483 7.474 7.483H24.73c1.84.01 3.52.553 4.644 1.385.004.003.01.005.013.009.404.3.732.64.972 1.002a7.84 7.84 0 0 1 1.059 2.051l.056.19.067-.19a7.887 7.887 0 0 1 1.077-2.073c.173-.26.394-.504.653-.731a4 4 0 0 1 .518-.395c1.12-.753 2.71-1.24 4.447-1.248H48.58c4.12 0 7.474-3.357 7.474-7.483V0h-.675z" fill="#C59E54"/>
        <path d="M14.599 13.809c-.524.535-.937 1.273-1.186 2.2-.151.563-.195 1.056-.15 1.449l.05.388c.04.15.103.338.191.56.116.27.198.397.24.38.094-.064.188-.128.283-.19.037-.257.079-.511.125-.762.252-.334.511-.65.777-.948-.118.48-.218.973-.3 1.48l3.83.756a11.29 11.29 0 0 0-.656.825l-3.325-.429c-.036.337-.063.68-.081 1.029-.207.382-.404.785-.59 1.208 0-.736.033-1.449.098-2.14-.201.343-.353.52-.467.51a.42.42 0 0 1-.35-.218 3.763 3.763 0 0 1-.407-.935c-.073-.285-.13-.695-.152-1.223a4.522 4.522 0 0 1 .118-1.163 7.038 7.038 0 0 1 1.501-2.985c.226-.267.595-.6 1.112-.947.217-.015.434-.026.649-.034-.448.36-.886.755-1.31 1.189" fill="#FFFFFE"/>
        <path d="m17.607 13.906-.003-.042c.049.091.057.225.028.405a1.969 1.969 0 0 1-.141.489 1.541 1.541 0 0 1-.62.72c.12.351.12.707.004 1.094-.129.426-.343.674-.666.74a.347.347 0 0 1-.168-.006c-.254-.071-.431-.366-.502-.89a8.367 8.367 0 0 1-.047-.422c-.07.043-.158.105-.26.19a1.728 1.728 0 0 0-.292.62c.098-.345.023-.106-.155.77-.256.314-.504.647-.744.999.1-.681.23-1.34.391-1.974a2.44 2.44 0 0 1 .429-.913c.123-.127.313-.29.573-.472-.144-.344-.152-.824.008-1.413.048-.18.085-.295.109-.345.143-.306.614-.63 1.399-.87l.095-.016c-.235-.111-.47-.221-.706-.33a73.444 73.444 0 0 0-.839-.4c.305-.216.543-.357.71-.44.111-.034.2-.027.268.019l.057.038c.076-.014.198-.134.374-.353.337-.158.676-.3 1.016-.429-.264.337-.516.686-.755 1.048l3.284 2.247c-.3.11-.6.234-.9.374a482.39 482.39 0 0 1-2.02-1.27c-.098-.06-.301-.038-.61.083-.308.122-.5.278-.574.453-.092.224-.111.4-.06.519.297-.258.49-.396.568-.442.21-.12.39-.134.534-.053a.44.44 0 0 1 .215.272" fill="#FFFFFE"/>
        <path d="M20.977 7.709c-.272.199-.536.407-.795.624.016-.007.04.006.069.04.088.103.185.14.29.111.16-.04.358-.155.604-.339l.107-.08-.275-.356zm.672.87c-.492.294-.961.45-1.441.46-.278.004-.504-.036-.674-.132a15.48 15.48 0 0 0-.8.803c.083.008.183.021.301.043.008.007.072-.04.195-.137a2.172 2.172 0 0 1 1.903-.397c.14.036.262.105.368.206.239-.062.495-.079.765-.047l-.617-.799zm.081-1.394.22.317c.06-.04.13-.084.21-.135.415-.263.847-.391 1.269-.388.423.002.7.152.841.42a.714.714 0 0 1 .07.532c-.054.206-.202.37-.446.506a1.874 1.874 0 0 1-.628.235c-.226.038-.387-.009-.483-.15-.052-.076-.06-.185-.02-.329a.482.482 0 0 1 .23-.31c.304-.174.52-.25.638-.24-.017-.03-.085-.056-.203-.077-.177-.028-.446.058-.794.273a2.3 2.3 0 0 0-.3.218l1.657 2.39a13.248 13.248 0 0 0-.628-.092 4.907 4.907 0 0 0-.518-.27 3.041 3.041 0 0 0-.572-.154c-.148-.025-.344 0-.586.083.009.275-.117.524-.376.765a1.074 1.074 0 0 1-.528.29c-.188.037-.342.004-.46-.106-.128-.12-.17-.286-.118-.498.052-.21.178-.412.376-.595l.031-.018a.209.209 0 0 0-.05-.089c-.07-.074-.184-.107-.346-.094a.623.623 0 0 0-.404.176.481.481 0 0 0-.117.183.346.346 0 0 1 .06.19c.075.223.004.466-.205.741-.162.207-.34.338-.543.394-.204.058-.373.036-.508-.07-.233-.181-.27-.452-.093-.8a.48.48 0 0 0 .115-.147c-.025-.01-.12.012-.285.07-.076.011-.119.02-.128.024a16.1 16.1 0 0 0-.594.775c-.33.133-.657.28-.984.442 1.677-2.65 4.015-4.637 6.68-5.959.38.022.756.056 1.125.102-.906.39-1.778.855-2.605 1.395z" fill="#FFFFFE"/>
        <path d="m24.644 5.432-.072-.11a6.148 6.148 0 0 1-.47-.888c.215.008.428.019.639.034.096.141.2.25.312.326a.93.93 0 0 0 .166.044c.135-.048.27-.094.405-.138.364.077.72.165 1.07.262-.4.111-.798.235-1.189.372l1.466 3.806a13.304 13.304 0 0 0-.898-.29l-1.156-2.59a.694.694 0 0 0-.126-.167c-.097-.1-.247-.156-.45-.162a1.294 1.294 0 0 0-.606.13l-.186.09c-.35-.021-.707-.031-1.067-.03.353-.23.619-.378.785-.46.569-.279 1.038-.345 1.377-.23" fill="#FFFFFE"/>
        <path d="M25.301 3.121c.055-.07.175-.133.361-.19.195-.058.377-.066.543-.027-.244.17-.346.306-.315.402.021.067.117.108.287.127.169.017.316.008.445-.03.054-.003.305-.078.76-.204.534-.147.837-.211.898-.223.857-.144 1.46-.138 1.788-.053.632.169.937.452.943.807.14-.006.28-.01.42-.013.321.18.633.368.936.562a19.53 19.53 0 0 0-3.317.192c.032.045.148.074.348.088.291.023.494.053.61.082.276.069.503.181.68.335.277.242.39.491.356.74-.067.517-.54.884-1.366 1.199.135.007.372.067.698.193.281.115.497.22.65.312.273.167.536.342.79.522.094.3.183.6.264.902-1.067-1.027-2.591-1.567-4.249-1.438a16.962 16.962 0 0 0-1.224-.975c.797.072 1.446.078 1.995-.026.209-.039.377-.081.503-.131.251-.1.42-.17.505-.214.153-.085.287-.19.402-.316.034-.038.047-.09.04-.154a.443.443 0 0 0-.206-.322c-.123-.086-.285-.118-.48-.092a1.265 1.265 0 0 0-.15.029c-.012.185-.158.381-.426.597a1.47 1.47 0 0 1-.647.289 1.335 1.335 0 0 1-.582.007c-.176-.04-.284-.126-.323-.26-.033-.113-.011-.246.07-.396a.928.928 0 0 1 .35-.362c.073-.071.221-.158.45-.254a1.37 1.37 0 0 1 .267-.095 4.288 4.288 0 0 1-.345-.085c-.622.124-1.239.278-1.845.465a17.586 17.586 0 0 0-1.081-.23 19.54 19.54 0 0 1 4.788-1.096c.1-.025.197-.08.292-.164l.024-.018c-.01-.014-.106-.04-.292-.074a2.183 2.183 0 0 0-.624.014c-.317.04-.738.113-1.256.24-.21.054-.36.093-.451.112-.648.138-1.2.18-1.687.1-.389-.063-.626-.188-.7-.39-.058-.16-.025-.322.103-.484M41.373 6.838l-2.183 3.413c-.036-.19-.076-.378-.121-.568.02-.263.022-.63-.019-1.101a3.153 3.153 0 0 0-.187-.478 2.089 2.089 0 0 1-1.419-.045 2.888 2.888 0 0 1-1.23-.882c-.11-.128-.253-.358-.448-.69-.122-.206-.242-.533-.375-.978-.13-.427-.214-.757-.234-.999.22.099.436.202.65.308.109.38.175.625.21.736.11.327.224.561.355.703.27.305.456.51.577.61.221.19.491.333.816.438.5.168.819.113.969-.201.044-.09.062-.2.054-.33a.468.468 0 0 0-.146-.346.159.159 0 0 0-.08-.049 1.582 1.582 0 0 0-.196.068c-.213.09-.445.087-.703-.002a1.51 1.51 0 0 1-.611-.383c-.166-.171-.228-.335-.18-.491.076-.247.314-.366.72-.339.167.012.339.048.507.106.672.233 1.138.644 1.372 1.18.195.455.177.82-.012 1.092.042.181.08.36.114.54l1.003-1.76a18.3 18.3 0 0 0-5.405-1.83 16.646 16.646 0 0 0-.835-.69c2.708.339 5.34 1.23 7.642 2.675.17.33.327.661.47.995-.35-.248-.707-.482-1.075-.702" fill="#FFFFFE"/>
        <path d="m42.821 7.547.061-.116c.12-.23.306-.51.559-.84.102.185.2.37.295.557-.08.15-.123.293-.135.426a.8.8 0 0 0 .046.163c.11.09.221.182.33.276.115.347.219.697.308 1.046a15.629 15.629 0 0 0-.938-.833l-2.67 3.136c-.053-.301-.12-.603-.197-.905.58-.755 1.158-1.511 1.736-2.267A.655.655 0 0 0 42.302 8c.041-.132.015-.286-.084-.461a1.249 1.249 0 0 0-.425-.442l-.175-.11a15.52 15.52 0 0 0-.51-.905c.381.178.648.324.808.423.536.334.835.698.905 1.041" fill="#FFFFFE"/>
        <path d="M43.751 10.81c-.234.142-.399.261-.498.354-.326.303-.386.734-.237 1.3a.292.292 0 0 0 .12.17c-.005.02-.01.033-.018.039-.036.03-.114-.006-.236-.099.078.096.12.144.128.146l-.01-.06c0-.017-.002-.053-.007-.104-.016-.197.026-.342.134-.434.15-.128.36-.122.63.036a.98.98 0 0 1 .287.249.669.669 0 0 1 .149.384c.073.282.01.488-.176.615-.17.117-.369.125-.594.034a1.428 1.428 0 0 1-.593-.463c-.366-.465-.508-.943-.427-1.5.064-.458.252-.866.592-1.217.425-.438 1.08-.644 1.984-.489-.366-.4-.75-.778-1.151-1.134-.103-.345-.219-.69-.348-1.034a16.192 16.192 0 0 1 3.088 3.218c.039.349.065.697.082 1.044-1.104-1.276-2.15-1.516-2.899-1.055" fill="#FFFFFE"/>
        <path d="m48.79 17.095-3.817 1.049c.112-.32.214-.646.305-.976l1.995-.68c.08-.028.14-.128.176-.307a.935.935 0 0 0-.023-.49c-.042-.12-.108-.201-.197-.242-.083-.034-.227.026-.434.178a12.47 12.47 0 0 0-.411-.594c.141.025.23-.01.27-.112a1.93 1.93 0 0 0 .12-.403c.02-.246-.037-.517-.182-.802a1.176 1.176 0 0 0-.473-.518c-.191-.104-.356-.11-.491-.025-.15.093-.192.254-.136.49a.455.455 0 0 1 .112-.093c.12-.072.262-.065.424.029.161.094.295.244.396.452.167.342.16.65-.011.9-.136.209-.261.298-.373.28-.322-.055-.575-.304-.793-.738-.232-.46-.35-.866-.345-1.255.005-.385.137-.678.417-.875a.939.939 0 0 1 .838-.127c.361.1.672.363.908.79.243.432.342.892.296 1.35l-.008.075c.324.148.538.38.633.686.093.295.12.555.09.771-.026.098-.055.19-.086.278 0 .018-.001.04-.005.06l.532-.182a16.268 16.268 0 0 0-2.178-4.6c-.034-.385-.083-.771-.145-1.157 1.502 1.912 2.627 4.238 3.214 6.98-.1.429-.212.855-.338 1.275-.076-.501-.17-.99-.28-1.467" fill="#FFFFFE"/>
        <path d="m49.34 19.052.121-.046c.245-.094.567-.175.972-.24-.055.25-.116.5-.18.75-.159.065-.288.15-.388.259a1.324 1.324 0 0 0-.083.185c.015.182.026.365.037.55-.165.42-.34.836-.526 1.245 0-.556-.02-1.1-.059-1.63l-4.035.378c.173-.317.338-.643.491-.975l2.783-.447a.564.564 0 0 0 .19-.09c.12-.078.207-.236.259-.472a1.86 1.86 0 0 0 0-.745 14.488 14.488 0 0 0-.048-.244c.095-.393.18-.789.25-1.187.155.464.246.815.29 1.03.155.74.115 1.32-.075 1.68" fill="#FFFFFE"/>
        <path d="M33.116 11.004c-1.277.535-2.89 1.479-3.563 2.78-.637 1.234-.422 2.832-.191 4.148.129.74.034 1.36-.268 2.053-.195.45-.158 1.052-.11 1.525.195 1.893 1.804 3.467 3.153 4.578 0 0-.108-1.854.816-2.993 0 0 1.55-1.712 1.767-3.052 0 0 .326-1.14-.273-2.509-.3-.688-.589-1.38-.929-2.047-.315-.625-.7-1.213-.836-1.918 0 0-.301-1.538.434-2.565" fill="#D8232A"/>
        <path d="M32.351 13.633c.115.597.388 1.106.651 1.597.071.134.146.273.215.409.282.554.535 1.14.78 1.705l.14.325c.54 1.23.26 2.272.258 2.282l-.005.018-.004.02c-.197 1.227-1.668 2.862-1.684 2.879-1.006 1.242-.907 3.159-.901 3.24l.55-.28c-1.212-1-2.844-2.536-3.032-4.352-.047-.465-.074-.99.085-1.356.336-.776.425-1.468.29-2.246-.23-1.311-.425-2.804.159-3.934.714-1.384 2.611-2.297 3.393-2.625l-.404-.508c-.81 1.133-.504 2.758-.491 2.826zm.635-2.94c-1.057.442-2.945 1.413-3.733 2.937-.68 1.316-.472 2.94-.224 4.36.114.648.04 1.205-.244 1.861-.221.51-.193 1.142-.137 1.694.213 2.063 1.97 3.73 3.275 4.804l.596.49-.045-.77c-.002-.017-.088-1.74.74-2.762.054-.059 1.609-1.788 1.839-3.21l-.01.039c.015-.051.354-1.274-.287-2.738l-.14-.322c-.25-.575-.506-1.17-.798-1.742a16.569 16.569 0 0 0-.222-.423c-.25-.467-.487-.909-.582-1.406-.003-.014-.263-1.411.376-2.305l.693-.969-1.097.461z" fill="#C59E54"/>
        <path fill="#FFFFFE" d="M21.921 21.27h4.393v-1.012h-4.393zM36.737 21.27h4.301v-1.012h-4.301zM31.05 30.135h1.012v-3.062H31.05zM35.669 17.273l2.889-2.893-.715-.716-2.89 2.893.716.716M25.135 27.717 28.05 24.8l-.716-.716L24.42 27l.715.716M28.021 16.568l-2.848-2.852-.716.717 2.849 2.851.715-.716M38.615 26.994l-3.019-3.022-.715.716L37.9 27.71l.715-.716M22.671 39.008s-2.313 4.07-3.713 9.61c-.31 1.227-.508 2.051-.631 2.594.552.076 1.137.224 1.647.378.614-1.008 1.71-2.274 2.562-3.196.243-3.173.535-8.1.135-9.386"/>
        <path d="M22.289 48.164c-.835.905-1.965 2.203-2.602 3.25l.386-.147a11.29 11.29 0 0 0-1.7-.39l.283.41c.13-.58.342-1.45.63-2.586 1.37-5.428 3.655-9.485 3.679-9.526l-.616-.066c.285.916.23 4.291-.149 9.26l.089-.205zm.089-9.322c-.023.04-2.352 4.172-3.747 9.693a120.565 120.565 0 0 0-.633 2.602l-.081.359.364.05c.466.064 1.003.188 1.595.368l.25.075.136-.223c.61-1 1.708-2.261 2.523-3.143l.08-.087.008-.116c.277-3.625.523-8.218.12-9.512l-.23-.742-.385.676z" fill="#C59E54"/>
        <path d="m19.316 51.65.28-.09.056.167.14.032c-.093-.472-.31-1.401-.741-3.11-1.4-5.54-3.713-9.608-3.713-9.608-.356 1.145-.164 5.177.054 8.287.889.923 2.688 2.876 3.394 4.203l.53.12" fill="#FFFFFE"/>
        <path d="M19.084 51.372c-.75-1.407-2.662-3.46-3.449-4.279l.093.211c-.308-4.413-.333-7.312-.068-8.163l-.615.067c.023.04 2.308 4.097 3.678 9.525.384 1.518.633 2.558.74 3.092l.404-.396-.14-.031.244.22a8.402 8.402 0 0 1-.054-.162l-.103-.322-.322.104-.28.092.179-.009-.53-.12.223.171zm.336.6.28-.091-.425-.218c.002.004.025.077.059.174l.06.178.185.042.14.03.507.116-.102-.51c-.109-.545-.36-1.597-.746-3.125-1.395-5.521-3.723-9.653-3.747-9.694l-.384-.676-.231.743c-.298.956-.284 3.786.04 8.41l.008.122.085.089c.768.798 2.63 2.796 3.339 4.127l.073.137.15.034.53.12.09.02.09-.028z" fill="#C59E54"/>
        <path d="m19.101 51.146 1.082.117.837-1.462S19.885 39.6 18.899 37.824c0 0-1.435 4.456-1.674 10.166-.045 1.085-.07 1.862-.083 2.413l1.96.743" fill="#FFFFFE"/>
        <path d="M17.479 50.41c.013-.601.042-1.411.083-2.405.235-5.6 1.644-10.033 1.658-10.077l-.616.06c.754 1.358 1.69 8.345 2.08 11.85l.043-.205-.836 1.462.329-.167-1.083-.118.084.02-1.96-.743.218.323zm1.586 1.071 1.082.118.22.024.11-.192.89-1.558-.012-.11c-.046-.419-1.154-10.289-2.161-12.103l-.378-.68-.238.74c-.015.045-1.452 4.566-1.69 10.256-.041.999-.07 1.813-.084 2.42l-.005.238.223.085 1.96.743.04.015.043.004z" fill="#C59E54"/>
        <path d="M12.974 42.468s1.128 9.636 5.859 9.9l.161-.264s-.592-3.335-6.02-9.636" fill="#FFFFFE"/>
        <path d="M24.96 42.468s-1.128 9.636-5.858 9.9l-.161-.264s.59-3.335 6.02-9.636" fill="#FFFFFE"/>
        <path d="M19.317 52.004c0-.005 0-.007-.002-.012.194-.705 1.173-3.585 5.119-8.371-.464 2.47-1.856 7.95-5.117 8.383zM13.5 43.62c3.946 4.787 4.925 7.666 5.12 8.372l-.003.012c-3.263-.434-4.654-5.914-5.117-8.384zm11.206-1.373c-3.68 4.272-5.159 7.186-5.739 8.667-.58-1.48-2.058-4.395-5.738-8.667l-.719-.834.129 1.094c.045.39 1.139 9.268 5.672 10.135v2.432h1.305v-2.43c4.54-.859 5.634-9.746 5.68-10.137l.128-1.094-.718.834z" fill="#C59E54"/>
        <path d="M25.399 54.178a1.81 1.81 0 0 0-.914.28c-.85.51-1.816.012-1.826.007-1.216-.77-2.7-.055-2.762-.024-1.035.526-1.742.022-1.772.001l-.018-.013-.022-.014c-1.016-.587-2.393-.11-2.45-.088l-.024.008-.023.011a2.41 2.41 0 0 1-1.91.114c-.322-.218-.801-.328-1.074-.377v.827c.248.053.519.135.641.232l.04.031.046.021a3.246 3.246 0 0 0 2.62-.124l-.046.02c.01-.004 1.08-.37 1.77.025.185.128 1.2.754 2.584.051.006-.003 1.139-.542 1.995 0 .083.045 1.41.73 2.68-.034.024-.016.21-.133.465-.149v-.805M25.399 55.978c-.512.018-.871.249-.914.28-.85.51-1.816.013-1.826.007-1.216-.77-2.7-.055-2.762-.024-1.035.526-1.742.022-1.772 0l-.018-.012-.022-.014c-1.016-.587-2.393-.109-2.45-.089l-.024.01-.023.01a2.41 2.41 0 0 1-1.91.115c-.322-.22-.801-.33-1.074-.377v.826c.248.054.519.136.641.232l.04.032.046.02a3.245 3.245 0 0 0 2.62-.123l-.046.02c.01-.004 1.08-.372 1.77.024.185.128 1.2.754 2.584.05.006-.002 1.139-.54 1.995.001.083.046 1.41.73 2.68-.033.024-.017.21-.134.465-.15v-.805M45.62 46.645v4.506l-.377-.478a14.068 14.068 0 0 0-.504-1.072 4.414 4.414 0 0 0-.333-.385c-.3.382-.673.573-1.122.573-.45 0-.866-.173-1.25-.52-.12-.107-.291-.317-.513-.63-.136-.196-.293-.526-.466-.99-.168-.443-.276-.795-.324-1.058l.511.202c.144.393.24.645.288.757.143.33.282.556.412.673.276.253.473.413.593.48.221.13.473.185.753.168.437-.023.655-.228.655-.615a1.06 1.06 0 0 0-.07-.363c-.055-.152-.126-.25-.216-.296-.025-.016-.048-.022-.072-.016a1.262 1.262 0 0 0-.116.15.596.596 0 0 1-.511.265.858.858 0 0 1-.55-.197.587.587 0 0 1-.247-.473c0-.29.144-.487.43-.593.12-.045.246-.067.377-.067.522 0 .953.218 1.294.654.288.37.417.739.386 1.108l.297.479v-2.262H40.75l-.675-.634h5.788l.692.634h-.935" fill="#FFFFFE"/>
        <path d="M43.377 52.311a4.55 4.55 0 0 1-4.548-4.554 4.55 4.55 0 0 1 4.548-4.554 4.552 4.552 0 0 1 4.55 4.554 4.552 4.552 0 0 1-4.55 4.554zm8.848-5.166-5.32-4.668c-1.853-1.735-4.364-1.136-4.364-1.136-1.556 0-2.973 1.274-4.053 2.266-1.547 1.423-3.174 2.737-4.794 4.077l5.918 5.086c.908.78 2.202 1.407 3.402 1.492 1.591.112 3.102-.578 4.347-1.513 2.022-1.517 3.8-3.346 5.7-5.005l-.836-.6z" fill="#FFFFFE"/>
        <path d="M52.84 47.489c-.662.577-1.318 1.184-1.952 1.77-1.19 1.1-2.42 2.239-3.729 3.22-.965.724-2.463 1.563-4.122 1.446-1.05-.074-2.28-.615-3.206-1.412l-5.917-5.085-.005.516.734-.606c1.354-1.115 2.753-2.269 4.073-3.483 1-.918 2.371-2.176 3.825-2.176h.039l.038-.01c.024-.005 2.363-.53 4.056 1.056l5.328 4.674c.026.02.863.62.863.62l-.025-.53zm-.393-.598-5.32-4.667c-1.955-1.832-4.554-1.238-4.664-1.212l.078-.009c-1.716 0-3.26 1.417-4.281 2.355-1.307 1.201-2.7 2.35-4.046 3.46l-1.043.86.304.262 5.917 5.086c1.031.886 2.41 1.489 3.598 1.573 1.477.103 3.059-.443 4.574-1.58 1.336-1.002 2.579-2.151 3.782-3.264a91.714 91.714 0 0 1 1.937-1.757l.321-.28-.347-.25s-.836-.598-.81-.577z" fill="#C59E54"/>
    </g>
</svg>
