<?xml version="1.0" encoding="UTF-8"?>
<!-- Uploaded to: SVG Repo, www.svgrepo.com, Generator: SVG Repo Mixer Tools -->
<svg id="Flat" width="743.69904" height="425.06152" fill="#000000" version="1.1" viewBox="0 0 237.98369 136.01969" xmlns="http://www.w3.org/2000/svg">
 <path d="m133.98369 20.019883a4.0002 4.0002 0 0 1 4-4h96a4 4 0 0 1 0 8h-96a4.0002 4.0002 0 0 1-4-4zm100 44h-96a4 4 0 0 0 0 8h96a4 4 0 0 0 0-8zm0 47.999997h-72a4 4 0 0 0 0 8h72a4 4 0 0 0 0-8zm-102.14258 19.00293a3.9998027 3.9998027 0 1 1-7.74707 1.99414 60.02112 60.02112 0 0 0-116.2207023 0 3.9998027 3.9998027 0 1 1-7.74706996-1.99414 67.92968 67.92968 0 0 1 45.65381026-47.935547 44 44 0 1 1 40.40722 0 67.92968 67.92968 0 0 1 45.653812 47.935547zm-65.857422-51.002927a36 36 0 1 0-36-36 36.04061 36.04061 0 0 0 36 36z"/>
</svg>
